<svg width="334" height="291" viewBox="0 0 334 291" fill="none" xmlns="http://www.w3.org/2000/svg">
<path fill-rule="evenodd" clip-rule="evenodd" d="M165.891 3.67675C206.411 4.40201 248.426 7.11462 278.877 33.0545C311.536 60.8766 328.671 101.8 330.468 143.876C332.378 188.626 323.902 237.466 288.848 266.629C254.916 294.858 205.701 288.295 161.093 284.787C120.365 281.584 79.0431 275.17 49.4938 247.803C18.8631 219.435 2.48148 179.313 2.90955 138.285C3.34031 96.998 19.3603 55.763 51.7768 28.9898C82.6379 3.50113 125.321 2.95061 165.891 3.67675Z" fill="#858D94"/>
<g clip-path="url(#clip0_586_2864)">
<path d="M295.59 54.2598H28.2603V229.61H295.59V54.2598Z" fill="#FAFAFA"/>
<path d="M295.59 229.61C295.59 227.92 295.51 161.21 295.38 54.2598L295.59 54.4698C222.23 54.4798 129.2 54.4998 28.2802 54.5198H28.2602L28.5202 54.2598C28.5102 116.62 28.5102 175.96 28.5002 229.61L28.2602 229.37C185.55 229.51 293.45 229.6 295.59 229.61C293.45 229.61 185.55 229.71 28.2602 229.85H28.0202V229.61C28.0102 175.96 28.0102 116.62 28.0002 54.2598V53.9998H28.2602H28.2802C129.2 54.0198 222.23 54.0398 295.59 54.0498H295.8V54.2598C295.67 161.21 295.59 227.92 295.59 229.61Z" fill="#263238"/>
<path d="M109.96 151.09L136.25 151.45C136.05 165.46 124.24 176.88 109.96 176.88C109.91 176.88 109.86 176.88 109.81 176.88L109.96 151.09Z" fill="#455A64"/>
<path d="M153.44 186.69C153.44 186.71 153.25 186.72 152.88 186.74C152.46 186.75 151.93 186.76 151.27 186.78C149.82 186.8 147.82 186.82 145.4 186.85H145.33L145.28 186.79C142.93 183.83 139.91 180.02 136.61 175.86C134.05 172.59 131.65 169.53 129.62 166.94L129.76 167.01C126.59 166.98 123.94 166.96 122.02 166.94C121.13 166.92 120.41 166.9 119.86 166.89C119.36 166.87 119.09 166.86 119.09 166.84C119.09 166.82 119.36 166.8 119.86 166.79C120.41 166.78 121.13 166.76 122.02 166.74C123.94 166.72 126.59 166.7 129.76 166.67H129.84L129.89 166.74C131.93 169.32 134.35 172.36 136.93 175.62C140.2 179.8 143.21 183.63 145.53 186.61L145.41 186.55C147.84 186.58 149.84 186.6 151.28 186.62C151.94 186.64 152.47 186.65 152.89 186.66C153.24 186.66 153.44 186.68 153.44 186.69Z" fill="#263238"/>
<path d="M162.87 189.72C162.87 189.83 159.06 189.92 154.36 189.92C149.66 189.92 145.85 189.83 145.85 189.72C145.85 189.61 149.66 189.52 154.36 189.52C159.06 189.52 162.87 189.61 162.87 189.72Z" fill="#263238"/>
<path d="M162.87 192.87C162.87 192.98 159.06 193.07 154.36 193.07C149.66 193.07 145.85 192.98 145.85 192.87C145.85 192.76 149.66 192.67 154.36 192.67C159.06 192.67 162.87 192.76 162.87 192.87Z" fill="#263238"/>
<path d="M105.8 147.35L105.43 173.14C91.1502 172.94 79.5002 161.36 79.5002 147.35C79.5002 133.2 91.3702 121.55 105.8 121.55C120.23 121.55 132.1 133.19 132.1 147.35H105.8Z" fill="#E8505B"/>
<path d="M95.5303 138.91C95.5303 138.93 95.3703 138.96 95.0703 139.02C94.7103 139.08 94.2803 139.15 93.7603 139.23C92.5503 139.4 90.9503 139.62 89.0403 139.89L88.9603 139.9L88.9003 139.84C87.1003 138.09 84.9403 135.98 82.6003 133.71C79.5703 130.74 76.8503 128.04 74.8903 126.07C73.9603 125.12 73.1803 124.33 72.5903 123.72C72.0503 123.16 71.7603 122.84 71.7803 122.82C71.8003 122.8 72.1203 123.08 72.7003 123.61C73.3203 124.19 74.1203 124.95 75.0903 125.87C77.1003 127.79 79.8503 130.46 82.8803 133.43C85.2003 135.72 87.3503 137.85 89.1303 139.61L88.9903 139.56C90.9103 139.35 92.5203 139.17 93.7303 139.04C94.2503 138.99 94.6903 138.95 95.0503 138.92C95.3703 138.9 95.5303 138.9 95.5303 138.91Z" fill="#263238"/>
<path d="M65.1304 121.69C65.1304 121.8 61.3204 121.89 56.6204 121.89C51.9204 121.89 48.1104 121.8 48.1104 121.69C48.1104 121.58 51.9204 121.49 56.6204 121.49C61.3204 121.49 65.1304 121.58 65.1304 121.69Z" fill="#263238"/>
<path d="M65.1304 124.84C65.1304 124.95 61.3204 125.04 56.6204 125.04C51.9204 125.04 48.1104 124.95 48.1104 124.84C48.1104 124.73 51.9204 124.64 56.6204 124.64C61.3204 124.64 65.1304 124.73 65.1304 124.84Z" fill="#263238"/>
<path d="M197.79 96.3899L197.69 80.3599C192.97 80.3899 188.16 82.2499 184.47 85.5199C180.12 89.3599 177.34 95.1399 178.1 102.12C178.18 102.88 178.3 103.66 178.47 104.45C178.47 104.47 178.48 104.49 178.48 104.51L197.79 100.16V96.3899Z" fill="#E8505B"/>
<g opacity="0.3">
<g opacity="0.3">
<path opacity="0.3" d="M197.79 96.3899L197.69 80.3599C192.97 80.3899 188.16 82.2499 184.47 85.5199C180.12 89.3599 177.34 95.1399 178.1 102.12C178.18 102.88 178.3 103.66 178.47 104.45C178.47 104.47 178.48 104.49 178.48 104.51L197.79 100.16V96.3899Z" fill="white"/>
</g>
</g>
<path d="M217.7 91.4499C215 85.8099 209.68 81.2999 202.11 80.5399C201.91 80.5199 201.7 80.4999 201.5 80.4899C201.37 80.4799 201.24 80.4699 201.11 80.4599C200.73 80.4399 200.34 80.4299 199.95 80.4299C199.93 80.4299 199.91 80.4299 199.9 80.4299C199.88 80.4299 199.87 80.4299 199.85 80.4299L199.95 96.4599L199.97 100.23L219.29 104.45L219.31 104.46C219.61 103.11 219.75 101.71 219.74 100.3C219.73 97.2799 219.03 94.2299 217.7 91.4499Z" fill="#E8505B"/>
<g opacity="0.3">
<g opacity="0.3">
<path opacity="0.3" d="M217.7 91.4499C215 85.8099 209.68 81.2999 202.11 80.5399C201.91 80.5199 201.7 80.4999 201.5 80.4899C201.37 80.4799 201.24 80.4699 201.11 80.4599C200.73 80.4399 200.34 80.4299 199.95 80.4299C199.93 80.4299 199.91 80.4299 199.9 80.4299C199.88 80.4299 199.87 80.4299 199.85 80.4299L199.95 96.4599L199.97 100.23L219.29 104.45L219.31 104.46C219.61 103.11 219.75 101.71 219.74 100.3C219.73 97.2799 219.03 94.2299 217.7 91.4499Z" fill="black"/>
</g>
</g>
<path d="M198.83 102.16L179.52 106.51C181.5 115.35 189.39 121.96 198.83 121.96C208.32 121.96 216.24 115.29 218.17 106.38L198.85 102.16" fill="#E8505B"/>
<path d="M274.01 99.2698C274.01 99.4098 264.02 99.5298 251.71 99.5298C239.39 99.5298 229.41 99.4098 229.41 99.2698C229.41 99.1298 239.39 99.0098 251.71 99.0098C264.02 99.0098 274.01 99.1298 274.01 99.2698Z" fill="#263238"/>
<path d="M274.01 94.1899C274.01 94.3299 264.02 94.4499 251.71 94.4499C239.39 94.4499 229.41 94.3299 229.41 94.1899C229.41 94.0499 239.39 93.9299 251.71 93.9299C264.02 93.9299 274.01 94.0399 274.01 94.1899Z" fill="#263238"/>
<path d="M274.01 89.0998C274.01 89.2398 264.02 89.3598 251.71 89.3598C239.39 89.3598 229.41 89.2398 229.41 89.0998C229.41 88.9598 239.39 88.8398 251.71 88.8398C264.02 88.8398 274.01 88.9598 274.01 89.0998Z" fill="#263238"/>
<path d="M274.01 104C274.01 104.14 264.02 104.26 251.71 104.26C239.39 104.26 229.41 104.14 229.41 104C229.41 103.86 239.39 103.74 251.71 103.74C264.02 103.74 274.01 103.86 274.01 104Z" fill="#263238"/>
<path d="M260.2 109.15C260.2 109.29 253.34 109.41 244.88 109.41C236.42 109.41 229.56 109.29 229.56 109.15C229.56 109.01 236.42 108.89 244.88 108.89C253.34 108.89 260.2 109.01 260.2 109.15Z" fill="#263238"/>
<path d="M187.22 145.95H182.63V197.26H187.22V145.95Z" fill="#E8505B"/>
<path d="M196.09 163.38H191.5V197.26H196.09V163.38Z" fill="#E8505B"/>
<path d="M204.96 152.33H200.37V197.52H204.96V152.33Z" fill="#E8505B"/>
<path d="M213.83 147.93H209.24V197.26H213.83V147.93Z" fill="#E8505B"/>
<path d="M222.7 164.42H218.11V197.26H222.7V164.42Z" fill="#E8505B"/>
<path d="M231.57 170.86H226.98V197.26H231.57V170.86Z" fill="#E8505B"/>
<path d="M240.44 151.22H235.85V197.26H240.44V151.22Z" fill="#E8505B"/>
<path d="M249.3 159.52H244.71V197.26H249.3V159.52Z" fill="#E8505B"/>
<path d="M258.17 152.89H253.58V197.26H258.17V152.89Z" fill="#E8505B"/>
<path d="M267.04 167.03H262.45V197.26H267.04V167.03Z" fill="#E8505B"/>
<path d="M275.91 161.28H271.32V197.26H275.91V161.28Z" fill="#E8505B"/>
<path d="M277.79 200.83C277.79 200.93 256 201.02 229.12 201.02C202.23 201.02 180.45 200.94 180.45 200.83C180.45 200.73 202.24 200.64 229.12 200.64C256 200.64 277.79 200.73 277.79 200.83Z" fill="#263238"/>
<path d="M189.18 204.87C189.18 204.97 187.65 205.06 185.77 205.06C183.89 205.06 182.36 204.98 182.36 204.87C182.36 204.77 183.89 204.68 185.77 204.68C187.65 204.68 189.18 204.77 189.18 204.87Z" fill="#263238"/>
<path d="M200.49 205.08C200.49 205.18 198.67 205.27 196.42 205.27C194.17 205.27 192.35 205.19 192.35 205.08C192.35 204.98 194.17 204.89 196.42 204.89C198.67 204.89 200.49 204.97 200.49 205.08Z" fill="#263238"/>
<path d="M210.14 205.08C210.14 205.18 208.32 205.27 206.07 205.27C203.82 205.27 202 205.19 202 205.08C202 204.98 203.82 204.89 206.07 204.89C208.31 204.89 210.14 204.97 210.14 205.08Z" fill="#263238"/>
<path d="M219.78 205.08C219.78 205.18 217.96 205.27 215.71 205.27C213.46 205.27 211.64 205.19 211.64 205.08C211.64 204.98 213.46 204.89 215.71 204.89C217.96 204.89 219.78 204.97 219.78 205.08Z" fill="#263238"/>
<path d="M229.43 205.08C229.43 205.18 227.61 205.27 225.36 205.27C223.11 205.27 221.29 205.19 221.29 205.08C221.29 204.98 223.11 204.89 225.36 204.89C227.6 204.89 229.43 204.97 229.43 205.08Z" fill="#263238"/>
<path d="M239.07 205.08C239.07 205.18 237.25 205.27 235 205.27C232.75 205.27 230.93 205.19 230.93 205.08C230.93 204.98 232.75 204.89 235 204.89C237.25 204.89 239.07 204.97 239.07 205.08Z" fill="#263238"/>
<path d="M248.72 205.08C248.72 205.18 246.9 205.27 244.65 205.27C242.4 205.27 240.58 205.19 240.58 205.08C240.58 204.98 242.4 204.89 244.65 204.89C246.9 204.89 248.72 204.97 248.72 205.08Z" fill="#263238"/>
<path d="M258.37 205.08C258.37 205.18 256.55 205.27 254.3 205.27C252.05 205.27 250.23 205.19 250.23 205.08C250.23 204.98 252.05 204.89 254.3 204.89C256.54 204.89 258.37 204.97 258.37 205.08Z" fill="#263238"/>
<path d="M268.01 205.08C268.01 205.18 266.19 205.27 263.94 205.27C261.69 205.27 259.87 205.19 259.87 205.08C259.87 204.98 261.69 204.89 263.94 204.89C266.19 204.89 268.01 204.97 268.01 205.08Z" fill="#263238"/>
<path d="M277.66 205.08C277.66 205.18 275.84 205.27 273.59 205.27C271.34 205.27 269.52 205.19 269.52 205.08C269.52 204.98 271.34 204.89 273.59 204.89C275.83 204.89 277.66 204.97 277.66 205.08Z" fill="#263238"/>
<g opacity="0.3">
<g opacity="0.3">
<g opacity="0.3">
<path opacity="0.3" d="M196.09 163.38H191.5V197.26H196.09V163.38Z" fill="white"/>
</g>
</g>
</g>
<g opacity="0.3">
<g opacity="0.3">
<g opacity="0.3">
<path opacity="0.3" d="M213.83 147.93H209.24V197.26H213.83V147.93Z" fill="white"/>
</g>
</g>
</g>
<g opacity="0.3">
<g opacity="0.3">
<g opacity="0.3">
<path opacity="0.3" d="M231.57 170.86H226.98V197.26H231.57V170.86Z" fill="white"/>
</g>
</g>
</g>
<g opacity="0.3">
<g opacity="0.3">
<g opacity="0.3">
<path opacity="0.3" d="M249.3 159.52H244.71V197.26H249.3V159.52Z" fill="white"/>
</g>
</g>
</g>
<g opacity="0.3">
<g opacity="0.3">
<g opacity="0.3">
<path opacity="0.3" d="M267.04 167.03H262.45V197.26H267.04V167.03Z" fill="white"/>
</g>
</g>
</g>
<path d="M60.7401 87.2198C60.7401 89.6598 58.7601 91.6398 56.3201 91.6398C53.8801 91.6398 51.9001 89.6598 51.9001 87.2198C51.9001 84.7798 53.8801 82.7998 56.3201 82.7998C58.7601 82.7998 60.7401 84.7798 60.7401 87.2198Z" fill="#E8505B"/>
<path d="M136.77 83.7297C136.77 83.8697 121.86 83.9897 103.47 83.9897C85.0702 83.9897 70.1702 83.8697 70.1702 83.7297C70.1702 83.5897 85.0802 83.4697 103.47 83.4697C121.86 83.4697 136.77 83.5897 136.77 83.7297Z" fill="#E8505B"/>
<path d="M96.9002 89.0798C96.9002 89.1198 96.5302 89.1498 95.8702 89.1798C95.2102 89.2098 94.2402 89.2398 93.0602 89.2598C90.6802 89.3098 87.4002 89.3398 83.7802 89.3398C80.1502 89.3398 76.8702 89.3098 74.5002 89.2598C73.3102 89.2398 72.3502 89.2098 71.6902 89.1798C71.0302 89.1498 70.6602 89.1098 70.6602 89.0798C70.6602 89.0398 71.0302 89.0098 71.6902 88.9798C72.3502 88.9498 73.3202 88.9198 74.5002 88.8998C76.8802 88.8498 80.1602 88.8198 83.7802 88.8198C87.4002 88.8198 90.6902 88.8498 93.0602 88.8998C94.2502 88.9198 95.2102 88.9498 95.8702 88.9798C96.5402 89.0098 96.9002 89.0398 96.9002 89.0798Z" fill="#E8505B"/>
</g>
<defs>
<clipPath id="clip0_586_2864">
<rect width="267.8" height="175.85" fill="white" transform="translate(28.0002 53.9998)"/>
</clipPath>
</defs>
</svg>
