<svg width="451" height="415" viewBox="0 0 451 415" fill="none" xmlns="http://www.w3.org/2000/svg">
<path fill-rule="evenodd" clip-rule="evenodd" d="M230.371 14.0103C289.768 6.34732 356.188 5.97821 400.05 46.9462C444.815 88.7574 451.791 156.141 448.18 217.446C444.801 274.789 423.522 330.401 381.082 368.886C340.557 405.636 284.956 414.342 230.371 414.963C174.97 415.593 118.322 408.53 76.2091 372.354C30.9642 333.488 -4.36622 277.063 0.43802 217.446C5.02962 160.468 56.6079 123.523 99.3053 85.746C138.121 51.4036 179.075 20.6281 230.371 14.0103Z" fill="#858D94"/>
<g clip-path="url(#clip0_586_2863)">
<path d="M413 334.5C413 334.769 331.506 335 231.008 335C130.472 335 49 334.769 49 334.5C49 334.231 130.472 334 231.008 334C331.511 334 413 334.212 413 334.5Z" fill="#263238"/>
<path d="M218.59 87.9902C181.82 81.6802 178.4 114.93 178.65 124.48C178.9 134.02 182.16 142.48 185.52 151.41C188.88 160.34 186.75 172.53 183.92 181.65C180.61 192.32 170.07 202.11 173.84 212.63C176.8 220.89 187.71 224.94 189.05 233.61C190.11 240.48 184.58 246.45 182.54 253.09C178.69 265.61 187.51 278.16 195.8 288.3C199.22 292.49 203.37 297.04 208.77 297.11C216.24 297.21 220.68 289.12 224.05 282.45C233.38 264.01 247.3 247.91 264.21 236.02" fill="#263238"/>
<path d="M195.98 137.78C196 137.83 195.17 138.25 193.71 138.6C192.26 138.95 190.16 139.14 187.89 138.79C185.62 138.43 183.68 137.59 182.41 136.81C181.13 136.03 180.47 135.37 180.51 135.33C180.56 135.26 181.3 135.81 182.59 136.49C183.88 137.17 185.77 137.92 187.97 138.27C190.17 138.61 192.2 138.49 193.64 138.24C195.08 137.99 195.95 137.7 195.98 137.78Z" fill="#455A64"/>
<path d="M184.95 222.39C184.95 222.39 184.09 221.5 182.89 219.62C181.72 217.74 180.27 214.79 179.48 210.86C178.69 206.97 178.61 202.03 180.35 197C181.2 194.49 182.53 192.03 184.07 189.62C185.61 187.2 187.34 184.81 188.95 182.26C192.17 177.17 194.1 171.65 194.76 166.47C195.13 163.89 195.24 161.4 195.13 159.09C195.08 156.77 194.74 154.63 194.4 152.68C193.62 148.81 192.48 145.79 191.54 143.79C191.12 142.76 190.67 142.03 190.42 141.5C190.16 140.98 190.03 140.7 190.04 140.69C190.06 140.68 190.22 140.94 190.51 141.45C190.79 141.96 191.27 142.69 191.72 143.71C192.72 145.69 193.92 148.71 194.75 152.61C195.11 154.57 195.47 156.73 195.55 159.07C195.68 161.41 195.58 163.93 195.22 166.54C194.57 171.77 192.63 177.39 189.37 182.54C187.75 185.11 186.01 187.5 184.48 189.9C182.95 192.29 181.63 194.71 180.79 197.16C179.06 202.08 179.1 206.94 179.83 210.79C180.56 214.67 181.94 217.61 183.05 219.51C184.2 221.42 185 222.35 184.95 222.39Z" fill="#455A64"/>
<path d="M306.48 186.09C306.48 186.09 324.92 186.09 337.47 212.98C346.78 232.93 373.33 300.85 369.14 319.93C368.2 324.21 365.52 333.72 358.68 333.85C347.03 334.07 338.88 333.43 338.88 333.43L323.98 298.98L309.61 249.82C309.61 249.82 286.47 190.74 306.48 186.09Z" fill="#E8505B"/>
<path d="M329.54 332.35L324.92 301.2L306.48 186.09L283.56 184.37L240.48 192.93C240.48 192.93 215.06 197.05 202.02 206.36C202.02 206.36 205.89 269.38 206.11 275.94C206.59 290.29 215.53 303.15 224.51 314.55L226.88 317.55L225.66 335.61L329.54 332.35Z" fill="#E8505B"/>
<path d="M221.78 197.42C221.78 197.42 203.66 201.36 192 216.42C182.59 228.57 138.73 282.69 138.73 282.69C138.73 282.69 116.18 295.32 111.99 308.35C107.8 321.38 112.05 332.93 121.83 332.93C131.61 332.93 156.87 326.24 156.87 326.24L205.97 270.01L207.08 279.69L218.32 230.55L221.78 197.42Z" fill="#E8505B"/>
<path d="M304.79 235.77C304.81 235.77 304.88 235.97 305 236.37C305.13 236.82 305.3 237.4 305.51 238.12C305.97 239.71 306.59 241.9 307.36 244.57C308.94 250.01 311.19 257.52 313.72 265.79C316.26 274.03 318.56 281.49 320.25 286.96C321.07 289.62 321.73 291.8 322.21 293.38C322.42 294.1 322.59 294.68 322.72 295.13C322.83 295.53 322.88 295.75 322.87 295.75C322.85 295.76 322.77 295.55 322.62 295.16C322.46 294.71 322.26 294.14 322.01 293.44C321.49 291.87 320.77 289.71 319.89 287.07C318.13 281.68 315.74 274.22 313.21 265.94C310.68 257.67 308.48 250.15 306.99 244.67C306.25 241.93 305.66 239.71 305.3 238.17C305.13 237.44 304.99 236.85 304.88 236.39C304.82 235.99 304.78 235.78 304.79 235.77Z" fill="#263238"/>
<path d="M287.83 298.4C287.84 298.44 287.39 298.54 286.56 298.7C286.15 298.78 285.64 298.87 285.05 298.93C284.46 298.99 283.78 299.09 283.03 299.11C281.53 299.21 279.74 299.19 277.76 299.02C275.78 298.82 273.62 298.45 271.41 297.84C269.2 297.21 267.16 296.4 265.37 295.55C263.59 294.67 262.04 293.76 260.81 292.89C260.18 292.48 259.65 292.05 259.18 291.69C258.7 291.33 258.32 291 258.01 290.71C257.39 290.15 257.06 289.83 257.08 289.8C257.15 289.72 258.52 290.97 261.02 292.59C262.26 293.41 263.81 294.27 265.58 295.12C267.36 295.94 269.38 296.72 271.56 297.34C273.74 297.94 275.87 298.32 277.82 298.54C279.77 298.73 281.54 298.8 283.03 298.74C285.99 298.64 287.81 298.29 287.83 298.4Z" fill="#263238"/>
<path d="M209.59 237.87C209.61 237.88 209.57 238.07 209.49 238.44C209.39 238.86 209.26 239.4 209.1 240.05C208.92 240.74 208.71 241.6 208.5 242.59C208.29 243.59 208.01 244.71 207.79 245.98C207.29 248.5 206.84 251.52 206.48 254.89C206.16 258.26 205.94 261.98 205.96 265.89C206.01 269.8 206.28 273.52 206.66 276.89C207.08 280.25 207.58 283.27 208.12 285.77C208.36 287.03 208.65 288.15 208.88 289.15C209.1 290.14 209.33 290.99 209.52 291.68C209.69 292.33 209.83 292.86 209.94 293.28C210.03 293.65 210.07 293.84 210.05 293.85C210.03 293.86 209.96 293.67 209.84 293.31C209.71 292.9 209.54 292.37 209.33 291.73C209.11 291.05 208.85 290.2 208.6 289.21C208.34 288.22 208.02 287.1 207.76 285.84C207.17 283.33 206.63 280.31 206.18 276.94C205.77 273.56 205.48 269.82 205.44 265.89C205.42 261.96 205.65 258.22 206 254.83C206.39 251.45 206.88 248.42 207.43 245.9C207.67 244.63 207.97 243.51 208.21 242.52C208.44 241.52 208.69 240.68 208.9 239.99C209.1 239.35 209.26 238.82 209.38 238.41C209.5 238.05 209.57 237.86 209.59 237.87Z" fill="#263238"/>
<path d="M310.46 190.33C310.51 190.42 308.92 191.1 306.75 192.79C304.59 194.46 301.92 197.28 300.21 201.1C298.5 204.92 298.18 208.8 298.37 211.52C298.55 214.26 299.1 215.9 299 215.92C298.97 215.93 298.81 215.53 298.59 214.78C298.37 214.03 298.14 212.93 297.99 211.54C297.69 208.78 297.96 204.8 299.72 200.88C301.47 196.96 304.26 194.1 306.52 192.49C307.65 191.67 308.63 191.11 309.33 190.77C310.04 190.45 310.44 190.31 310.46 190.33Z" fill="#263238"/>
<path d="M308.09 248.93C308.09 248.93 307.96 249.3 307.57 249.94C307.19 250.57 306.5 251.47 305.37 252.33C304.25 253.2 302.68 254.03 300.72 254.51C298.76 255.01 296.41 255.08 293.91 254.65C291.4 254.23 288.77 253.33 286.01 252.25C283.25 251.18 280.34 249.93 277.13 249.16C275.53 248.78 273.85 248.53 272.13 248.55C270.42 248.58 268.67 248.86 266.96 249.4C263.53 250.46 260.32 252.45 257.18 254.62C254.04 256.81 251.06 259.13 247.87 260.9C244.71 262.68 241.33 264 237.95 264.21C236.27 264.32 234.6 264.15 233.06 263.75C231.51 263.34 230.08 262.73 228.76 262.06C226.11 260.69 223.86 259.08 221.75 257.71C217.59 254.9 213.75 253.35 210.95 253.1C208.15 252.8 206.64 253.43 206.63 253.33C206.63 253.32 206.72 253.29 206.9 253.24C207.08 253.19 207.35 253.1 207.72 253.04C208.45 252.9 209.55 252.78 210.97 252.9C213.82 253.09 217.75 254.62 221.95 257.41C224.07 258.76 226.33 260.35 228.96 261.68C230.27 262.34 231.68 262.92 233.18 263.31C234.69 263.69 236.29 263.85 237.93 263.74C241.21 263.53 244.51 262.24 247.63 260.47C250.78 258.71 253.73 256.41 256.89 254.21C260.04 252.02 263.29 250.01 266.81 248.93C268.56 248.38 270.36 248.1 272.12 248.07C273.89 248.06 275.61 248.32 277.24 248.71C280.5 249.51 283.42 250.78 286.17 251.86C288.91 252.95 291.51 253.86 293.97 254.3C296.43 254.75 298.72 254.71 300.64 254.24C302.57 253.8 304.12 253.01 305.24 252.18C306.37 251.36 307.06 250.5 307.47 249.89C307.9 249.27 308.07 248.91 308.09 248.93Z" fill="#FAFAFA"/>
<path d="M346.36 234.31C346.38 234.32 346.31 234.45 346.16 234.7C346.03 234.96 345.78 235.3 345.44 235.74C344.75 236.59 343.52 237.68 341.74 238.54C339.96 239.4 337.65 240 335.04 240.11C332.43 240.23 329.59 239.82 326.66 239.34C323.73 238.86 320.94 238.39 318.39 238.39C315.84 238.38 313.55 238.8 311.76 239.49C309.96 240.17 308.66 241.09 307.88 241.82C307.09 242.55 306.74 243.05 306.7 243.02C306.69 243.01 306.77 242.88 306.93 242.65C307.09 242.41 307.36 242.08 307.74 241.68C308.5 240.89 309.8 239.9 311.63 239.15C313.46 238.4 315.8 237.93 318.4 237.92C321.01 237.9 323.83 238.36 326.76 238.84C329.69 239.32 332.49 239.74 335.03 239.65C337.57 239.56 339.84 239.02 341.59 238.23C343.34 237.43 344.57 236.43 345.29 235.63C346.01 234.8 346.31 234.27 346.36 234.31Z" fill="#FAFAFA"/>
<path d="M354.59 258.97C354.61 258.98 354.55 259.12 354.42 259.39C354.29 259.65 354.12 260.06 353.82 260.53C353.26 261.5 352.32 262.85 350.84 264.23C350.11 264.93 349.24 265.61 348.25 266.27C347.25 266.91 346.13 267.51 344.88 268C342.4 268.97 339.4 269.46 336.33 269.1C333.26 268.78 330.46 267.96 327.89 267.41C325.33 266.83 322.97 266.55 321 266.63C319.02 266.69 317.46 267.1 316.43 267.5C315.4 267.9 314.88 268.24 314.85 268.2C314.84 268.18 314.96 268.09 315.21 267.93C315.45 267.76 315.84 267.55 316.35 267.32C317.37 266.85 318.96 266.37 320.98 266.27C322.99 266.15 325.4 266.39 327.99 266.95C330.58 267.48 333.38 268.27 336.39 268.59C339.39 268.94 342.28 268.48 344.71 267.56C345.92 267.09 347.03 266.52 348.02 265.91C348.99 265.28 349.86 264.63 350.59 263.96C352.07 262.64 353.04 261.35 353.65 260.42C354.26 259.5 354.54 258.95 354.59 258.97Z" fill="#FAFAFA"/>
<path d="M209.54 289.63C209.49 289.55 211.24 289.46 213.45 287.54C214.56 286.62 215.73 285.29 217.14 283.79C218.56 282.29 220.39 280.76 222.63 279.42C224.89 278.12 227.58 277 230.65 276.6C232.18 276.39 233.78 276.36 235.42 276.58C237.06 276.79 238.69 277.29 240.28 277.94C243.49 279.24 246.55 281.18 249.93 282.68C251.62 283.42 253.41 284.04 255.29 284.28C256.23 284.41 257.18 284.42 258.13 284.36C259.08 284.27 260.03 284.08 260.97 283.81C264.73 282.71 267.98 280.54 271.31 278.85C274.64 277.13 278.03 275.83 281.35 274.91C287.99 273.05 294.24 272.61 299.43 272.88C304.63 273.16 308.76 274.09 311.54 274.89C312.94 275.27 314 275.66 314.72 275.93C315.05 276.06 315.32 276.15 315.53 276.23C315.71 276.3 315.8 276.34 315.8 276.35C315.8 276.36 315.7 276.33 315.51 276.28C315.3 276.21 315.02 276.13 314.68 276.03C313.95 275.8 312.89 275.44 311.48 275.09C308.69 274.35 304.57 273.49 299.41 273.25C294.26 273.03 288.05 273.5 281.48 275.37C278.2 276.3 274.84 277.59 271.55 279.3C268.25 280.98 264.99 283.17 261.12 284.31C260.16 284.58 259.17 284.78 258.18 284.87C257.19 284.94 256.19 284.93 255.22 284.79C253.27 284.54 251.44 283.9 249.72 283.15C246.29 281.62 243.24 279.68 240.09 278.39C238.52 277.74 236.93 277.25 235.35 277.03C233.76 276.81 232.2 276.83 230.7 277.02C227.7 277.4 225.05 278.47 222.81 279.73C220.59 281.02 218.77 282.51 217.34 283.98C215.91 285.45 214.71 286.78 213.57 287.69C212.44 288.61 211.41 289.13 210.67 289.37C209.95 289.62 209.54 289.63 209.54 289.63Z" fill="#FAFAFA"/>
<path d="M197.44 278.85C197.4 278.92 197 278.23 195.8 277.99C195.21 277.88 194.46 277.89 193.6 278.03C192.74 278.15 191.77 278.39 190.66 278.55C189.55 278.69 188.27 278.63 187 278.22C185.73 277.81 184.49 277.08 183.35 276.13C182.21 275.18 181.19 273.98 180.29 272.64C179.41 271.29 178.7 269.77 178.06 268.21C176.78 265.07 175.82 262 174.4 259.47C173.05 256.91 171.11 255.06 169.24 253.95C168.31 253.39 167.38 253.03 166.55 252.81C165.71 252.62 164.96 252.55 164.35 252.58C163.13 252.64 162.48 252.91 162.47 252.85C162.46 252.83 162.62 252.77 162.93 252.66C163.24 252.54 163.71 252.44 164.34 252.38C164.96 252.32 165.74 252.36 166.62 252.53C167.49 252.73 168.45 253.08 169.43 253.63C171.38 254.73 173.41 256.62 174.82 259.24C176.29 261.81 177.28 264.91 178.54 268.01C179.18 269.56 179.87 271.05 180.72 272.36C181.59 273.66 182.57 274.83 183.66 275.76C184.75 276.69 185.93 277.4 187.14 277.81C188.34 278.22 189.54 278.3 190.62 278.19C192.77 277.9 194.59 277.45 195.85 277.8C196.47 277.95 196.89 278.24 197.13 278.46C197.35 278.7 197.45 278.85 197.44 278.85Z" fill="#FAFAFA"/>
<path d="M206.94 249.38C206.95 249.4 206.83 249.45 206.61 249.53C206.39 249.63 206.05 249.72 205.6 249.81C204.71 249.99 203.34 249.99 201.77 249.51C200.2 249.03 198.47 248.06 196.86 246.62C195.25 245.18 193.83 243.28 192.35 241.33C190.87 239.38 189.42 237.55 187.79 236.23C186.16 234.92 184.41 234.1 182.88 233.76C181.34 233.41 180.03 233.52 179.18 233.76C178.32 233.99 177.89 234.24 177.86 234.19C177.85 234.17 177.96 234.11 178.16 233.99C178.36 233.86 178.69 233.72 179.12 233.57C179.98 233.27 181.34 233.09 182.95 233.41C184.56 233.72 186.39 234.53 188.09 235.87C189.79 237.22 191.28 239.08 192.76 241.03C194.24 242.99 195.63 244.86 197.18 246.28C198.72 247.69 200.38 248.67 201.88 249.17C203.38 249.68 204.69 249.73 205.56 249.62C206.45 249.51 206.92 249.33 206.94 249.38Z" fill="#FAFAFA"/>
<path d="M253.96 103.99C242.34 77.7803 208.2 93.3503 208.2 93.3503C192.1 99.2603 189.82 117.37 193.54 129.72C197.67 143.44 203.25 160.04 208.55 169.45C219.21 188.38 235.58 185.22 235.58 185.22L241.05 198.7C245.84 210.5 259.35 216.12 271.09 211.19C282.47 206.42 288.01 193.48 283.62 181.95L253.96 103.99Z" fill="#FFBE9D"/>
<path d="M235.59 185.22C235.59 185.22 249.45 181.07 259.87 168.04C259.87 168.04 258.27 184.35 237.43 189.94L235.59 185.22Z" fill="#EB996E"/>
<path d="M306.48 186.09C306.48 186.04 304.46 164.74 288.02 150.06C271.57 135.36 293.86 129.68 279.56 110.29C274.84 103.89 269.59 98.0702 262.83 93.8902C261.63 93.1502 260.51 92.2702 259.46 91.3502C256.67 88.8902 254.24 86.0102 251.21 83.8502C248.93 82.2302 246.17 81.0502 243.43 81.0102C241.77 80.3302 240.03 79.8102 238.2 79.5402C230.18 78.3302 222.23 81.5602 214.75 84.7102C207.52 87.7602 188.08 87.0302 194.23 106.9C195.51 103.59 200.48 100.86 204.38 104.11C207.1 106.38 208.48 108.38 209.13 111.86C210 116.49 211.36 121.62 216.97 122.81C218.33 123.1 219.76 123.06 221.13 122.75C225.81 121.7 229.57 114.62 238.51 116.3C238.51 116.3 247.21 119 247.72 124.47C248.23 129.94 245.2 140.1 250.56 144.94C255.92 149.78 256.82 149.64 256.67 153.82C256.64 154.78 256.63 155.44 256.58 155.92C255.9 162.53 254.76 191.27 284.08 186.39L293.94 185.79L306.48 186.09Z" fill="#263238"/>
<path d="M244.94 83.9201C246.23 77.8901 249.09 72.1001 253.66 67.9701C258.23 63.8401 264.61 61.5501 270.69 62.5601C276.77 63.5701 282.29 68.1601 283.72 74.1601C285.15 80.1501 281.91 87.1101 276.15 89.2901C271.79 90.9401 266.94 89.8601 262.28 89.7501C257.62 89.6401 252.16 91.1401 250.52 95.5001" fill="#263238"/>
<path d="M263.58 88.2302C263.46 87.0102 262.42 86.0702 261.29 85.5902C260.17 85.1102 258.93 84.9702 257.76 84.6102C256.05 84.0902 254.49 83.1002 253.3 81.7802C252.3 80.6802 251.56 79.3602 250.58 78.2402C249.6 77.1202 248.27 76.1702 246.78 76.1702C245.6 76.1702 244.44 76.8202 243.82 77.8202C243.2 78.8302 243.15 80.1502 243.68 81.2102C247.44 84.2802 251.25 87.5802 255.53 89.8802C257.03 90.6802 258.63 91.5002 260.32 91.4002C262.01 91.3102 263.75 89.9202 263.58 88.2302Z" fill="#E8505B"/>
<path d="M317.86 189.35C317.84 189.35 317.87 189.06 317.93 188.52C318.01 187.98 318.06 187.18 318.12 186.15C318.21 184.1 318.1 181.08 317.19 177.52C316.29 173.97 314.51 169.85 311.38 166.13C308.28 162.37 303.8 159.32 299.04 156.32C294.27 153.33 289.7 150.34 286.38 146.67C284.71 144.86 283.36 142.9 282.43 140.91C281.49 138.92 281.02 136.89 280.87 135.03C280.54 131.28 281.6 128.27 282.69 126.52C283.25 125.64 283.78 125.02 284.17 124.64C284.57 124.26 284.78 124.07 284.79 124.09C284.85 124.14 283.92 124.86 282.86 126.63C281.83 128.38 280.86 131.33 281.23 135C281.4 136.82 281.88 138.79 282.81 140.73C283.73 142.67 285.07 144.58 286.72 146.35C290.01 149.94 294.54 152.9 299.31 155.89C304.07 158.88 308.6 161.98 311.74 165.83C314.9 169.63 316.67 173.83 317.54 177.44C318.42 181.06 318.47 184.11 318.32 186.17C318.23 187.2 318.14 188 318.03 188.54C317.93 189.07 317.88 189.35 317.86 189.35Z" fill="#263238"/>
<path d="M254.52 89.1602C254.54 89.1702 254.42 89.4302 254.18 89.9102C253.95 90.4002 253.58 91.1002 253.06 91.9902C252.02 93.7602 250.39 96.2702 247.9 98.9802C245.44 101.71 242.12 104.64 237.93 107.14C235.83 108.37 233.55 109.56 231.01 110.38C228.49 111.18 225.67 111.69 222.84 111.14C221.44 110.86 220.1 110.3 218.96 109.49C217.82 108.69 216.88 107.66 216.09 106.58C214.53 104.4 213.5 102.05 212.33 99.9501C211.75 98.9001 211.13 97.9002 210.45 96.9902C209.78 96.0702 208.98 95.3202 208.17 94.6402C206.5 93.3302 204.65 92.5102 202.91 92.0502C199.39 91.1302 196.35 91.6201 194.45 92.2701C192.52 92.9301 191.6 93.6202 191.56 93.5602C191.55 93.5501 191.78 93.3902 192.24 93.1002C192.46 92.9502 192.76 92.7802 193.12 92.6202C193.47 92.4402 193.89 92.2402 194.38 92.0802C196.29 91.3602 199.38 90.8002 203 91.6902C204.79 92.1402 206.7 92.9602 208.44 94.3002C209.28 95.0002 210.12 95.7802 210.81 96.7102C211.52 97.6302 212.15 98.6502 212.74 99.7102C213.94 101.83 214.97 104.16 216.5 106.27C217.26 107.32 218.16 108.3 219.25 109.06C220.33 109.83 221.59 110.36 222.93 110.63C225.62 111.16 228.37 110.68 230.84 109.9C233.32 109.1 235.59 107.94 237.67 106.73C241.83 104.29 245.14 101.41 247.61 98.7402C250.11 96.0802 251.77 93.6102 252.86 91.8902C253.4 91.0202 253.8 90.3402 254.06 89.8702C254.36 89.4002 254.51 89.1602 254.52 89.1602Z" fill="#455A64"/>
<path d="M257.42 91.1602C257.46 91.1602 257.53 91.6502 257.63 92.5502C257.67 93.0002 257.67 93.5501 257.69 94.2001C257.66 94.8401 257.65 95.5801 257.53 96.3801C257.19 99.5801 255.76 104.04 252.57 107.89C250.99 109.81 249.17 111.36 247.33 112.49C245.5 113.63 243.71 114.35 242.23 114.99C240.75 115.61 239.56 116.13 238.75 116.52C237.94 116.91 237.5 117.14 237.48 117.1C237.46 117.07 237.87 116.78 238.66 116.34C239.45 115.9 240.62 115.32 242.08 114.65C243.53 113.97 245.3 113.22 247.07 112.08C248.85 110.96 250.62 109.43 252.16 107.56C255.28 103.81 256.73 99.4701 257.16 96.3401C257.65 93.1701 257.3 91.1702 257.42 91.1602Z" fill="#455A64"/>
<path d="M290.2 184.33C290.18 184.33 290.19 184.04 290.21 183.48C290.24 182.93 290.28 182.11 290.26 181.06C290.23 178.96 289.99 175.9 289 172.28C288.47 170.48 287.78 168.54 286.83 166.55C285.86 164.57 284.64 162.54 283.13 160.58C281.62 158.62 279.8 156.74 277.71 155.05C275.61 153.36 273.23 151.84 270.99 150.01C269.87 149.09 268.81 148.1 267.9 147.01C266.98 145.92 266.23 144.72 265.65 143.46C264.51 140.94 264.03 138.3 263.73 135.82C263.44 133.33 263.31 130.96 263.08 128.76C262.87 126.56 262.46 124.54 261.91 122.75C260.82 119.15 258.96 116.62 257.33 115.32C255.68 114.03 254.5 113.74 254.53 113.67C254.54 113.65 254.81 113.75 255.34 113.94C255.86 114.15 256.6 114.53 257.46 115.16C259.16 116.44 261.12 119 262.27 122.64C262.85 124.45 263.29 126.5 263.52 128.71C263.77 130.92 263.91 133.29 264.21 135.76C264.53 138.22 265 140.8 266.12 143.24C267.22 145.69 269.11 147.8 271.33 149.59C273.54 151.4 275.91 152.92 278.04 154.64C280.16 156.36 282.01 158.28 283.53 160.28C285.05 162.28 286.27 164.34 287.24 166.35C288.18 168.38 288.86 170.34 289.38 172.17C290.34 175.85 290.53 178.94 290.49 181.05C290.49 182.11 290.41 182.93 290.35 183.48C290.25 184.04 290.21 184.33 290.2 184.33Z" fill="#455A64"/>
<path d="M282.61 70.6401C282.55 70.7601 280.98 69.3801 277.85 68.6101C274.78 67.8201 270.08 67.9401 265.75 70.2501C261.42 72.5801 258.58 76.2001 256.91 78.9201C256.07 80.2901 255.47 81.4501 255.08 82.2701C254.69 83.0801 254.48 83.5401 254.44 83.5201C254.41 83.5101 254.56 83.0301 254.89 82.1801C255.23 81.3401 255.78 80.1401 256.59 78.7301C258.19 75.9401 261.05 72.2001 265.5 69.8001C269.96 67.4101 274.81 67.3601 277.93 68.2601C279.51 68.7001 280.71 69.2901 281.47 69.7901C281.87 70.0201 282.13 70.2601 282.33 70.4001C282.53 70.5401 282.62 70.6301 282.61 70.6401Z" fill="#455A64"/>
<path d="M280.93 82.8901C280.88 82.9701 279.75 82.1301 277.68 81.2501C275.64 80.3701 272.58 79.5401 269.17 79.7301C265.76 79.9201 262.81 81.0701 260.88 82.1801C258.93 83.2801 257.9 84.2501 257.84 84.1701C257.82 84.1501 258.05 83.8801 258.53 83.4601C259 83.0301 259.73 82.4601 260.7 81.8601C262.62 80.6501 265.64 79.4001 269.15 79.2101C272.66 79.0201 275.79 79.9201 277.84 80.9101C278.87 81.4001 279.66 81.8901 280.17 82.2601C280.69 82.6301 280.95 82.8701 280.93 82.8901Z" fill="#455A64"/>
<path d="M215.92 364.03L127.43 356.56L203.56 334.33L283.64 334.46L215.92 364.03Z" fill="white"/>
<path d="M215.92 364.03C215.92 364.03 216.34 363.82 217.15 363.46C217.98 363.09 219.18 362.56 220.74 361.86C223.91 360.46 228.53 358.42 234.42 355.82C246.24 350.63 263.14 343.22 283.55 334.27L283.64 334.69C260.6 334.66 233.12 334.63 203.56 334.6L203.63 334.59C201.49 335.22 199.18 335.89 196.86 336.57C171.78 343.88 148.1 350.79 127.5 356.79L127.45 356.34C153.75 358.6 175.86 360.5 191.4 361.84C199.16 362.52 205.28 363.06 209.48 363.43C211.56 363.62 213.17 363.77 214.26 363.87C214.79 363.92 215.2 363.96 215.49 363.99C215.78 364.01 215.92 364.03 215.92 364.03C215.92 364.03 215.78 364.03 215.51 364.01C215.22 363.99 214.82 363.96 214.29 363.92C213.19 363.84 211.59 363.71 209.51 363.55C205.31 363.21 199.19 362.72 191.43 362.09C175.87 360.8 153.74 358.96 127.41 356.78L126.16 356.68L127.36 356.33C147.96 350.31 171.63 343.39 196.7 336.06C199.02 335.38 201.33 334.71 203.47 334.08L203.51 334.07H203.55C233.11 334.13 260.6 334.19 283.63 334.24H284.68L283.72 334.66C263.26 343.55 246.32 350.91 234.47 356.06C228.56 358.61 223.93 360.61 220.75 361.98C219.18 362.65 217.97 363.17 217.14 363.52C216.34 363.87 215.92 364.03 215.92 364.03Z" fill="#263238"/>
<path d="M127.43 356.56L42.3101 350.28L123.49 334.92H200.42L127.43 356.56Z" fill="#E0E0E0"/>
<path d="M127.43 356.56C127.43 356.56 127.88 356.4 128.76 356.13C129.65 355.86 130.95 355.46 132.64 354.94C136.06 353.91 141.05 352.41 147.41 350.5C160.16 346.7 178.39 341.26 200.35 334.71L200.41 335.14C178.15 335.15 151.78 335.16 123.48 335.18H123.53C121.21 335.62 118.72 336.09 116.22 336.56C89.37 341.63 64.1 346.4 42.35 350.5L42.32 350.05C67.71 351.96 88.98 353.57 103.91 354.69C111.36 355.27 117.24 355.72 121.26 356.03C123.26 356.19 124.79 356.32 125.84 356.4C126.35 356.45 126.74 356.48 127.02 356.5C127.3 356.54 127.43 356.56 127.43 356.56C127.43 356.56 127.3 356.56 127.03 356.55C126.75 356.53 126.36 356.51 125.86 356.48C124.81 356.41 123.28 356.31 121.28 356.18C117.26 355.9 111.39 355.49 103.93 354.96C88.98 353.88 67.7 352.34 42.29 350.51L40.53 350.38L42.26 350.05C64 345.93 89.27 341.14 116.12 336.05C118.63 335.58 121.12 335.11 123.43 334.67H123.45H123.47C151.77 334.68 178.14 334.7 200.4 334.71H201.93L200.46 335.14C178.46 341.62 160.21 347 147.43 350.76C141.06 352.62 136.06 354.08 132.64 355.08C130.94 355.57 129.64 355.94 128.75 356.2C127.89 356.45 127.43 356.56 127.43 356.56Z" fill="#263238"/>
<path d="M127.43 356.56C127.43 356.56 125.44 338.07 110.09 339.59C94.7399 341.11 74.3799 351.41 57.6399 351.41L39.6699 350.01L77.9899 342.12C77.9899 342.12 173.1 322.03 173.1 322.66C173.1 323.29 205.09 315.59 203.95 334.55L127.43 356.56Z" fill="white"/>
<path d="M127.43 356.56C127.43 356.56 127.92 356.4 128.84 356.13C129.78 355.85 131.15 355.45 132.93 354.93C136.51 353.89 141.75 352.36 148.43 350.41C161.78 346.54 180.87 341.01 203.88 334.34L203.72 334.54C203.81 332.84 203.67 331.07 203.04 329.45C202.43 327.82 201.33 326.37 199.91 325.3C197.03 323.14 193.26 322.34 189.53 322.02C185.77 321.72 181.89 321.94 177.99 322.38C177.01 322.5 176.03 322.63 175.05 322.75C174.56 322.81 174.07 322.89 173.56 322.93C173.43 322.94 173.32 322.96 173.13 322.94L173.04 322.92C173.02 322.92 172.92 322.86 172.89 322.78C172.87 322.67 172.82 322.64 172.91 322.82C173.06 322.93 173.04 322.88 173.03 322.89C173.04 322.89 173.01 322.89 173 322.89L172.83 322.9L172.1 323.01C170.13 323.34 168.15 323.73 166.15 324.11C150.17 327.27 133.22 330.82 115.66 334.47C102.01 337.33 88.74 340.11 76.02 342.77C63.29 345.38 51.13 347.88 39.71 350.23L39.68 349.77C45.92 350.26 51.91 350.73 57.65 351.18H57.63C63.71 351.1 69.48 349.96 74.84 348.57C80.21 347.18 85.23 345.6 89.96 344.17C94.69 342.74 99.14 341.45 103.33 340.55C105.42 340.1 107.45 339.75 109.4 339.53C111.35 339.28 113.26 339.32 115 339.7C118.54 340.43 121.15 342.61 122.83 344.76C124.53 346.95 125.46 349.13 126.1 350.91C126.73 352.7 127.04 354.12 127.22 355.08C127.41 356.06 127.43 356.56 127.43 356.56C127.43 356.56 127.4 356.43 127.36 356.19C127.32 355.95 127.26 355.58 127.15 355.1C126.95 354.15 126.62 352.73 125.97 350.96C125.31 349.2 124.36 347.04 122.67 344.89C121 342.77 118.42 340.65 114.94 339.95C113.22 339.58 111.35 339.55 109.42 339.81C107.48 340.04 105.47 340.39 103.39 340.85C99.22 341.76 94.79 343.07 90.06 344.51C85.33 345.95 80.31 347.56 74.93 348.96C69.56 350.37 63.77 351.53 57.62 351.63H57.61H57.6C51.86 351.19 45.87 350.73 39.63 350.25L38 350.12L39.62 349.78C51.04 347.42 63.2 344.91 75.93 342.29C88.65 339.62 101.92 336.84 115.56 333.97C133.12 330.32 150.06 326.78 166.06 323.63C168.06 323.24 170.04 322.86 172.03 322.53C174.04 322.48 175.97 322.08 177.95 321.89C181.87 321.45 185.77 321.23 189.58 321.54C193.35 321.87 197.19 322.68 200.19 324.93C201.68 326.04 202.83 327.58 203.46 329.28C204.11 330.99 204.25 332.81 204.16 334.56L204.15 334.71L204 334.75C180.9 341.34 161.74 346.81 148.34 350.64C141.67 352.53 136.44 354.02 132.86 355.03C131.09 355.53 129.73 355.91 128.8 356.17C127.89 356.44 127.43 356.56 127.43 356.56Z" fill="#263238"/>
<path d="M214.04 357.85C212.43 357.85 155.54 353.39 155.54 353.39L214.04 357.85Z" fill="white"/>
<path d="M155.54 353.39C155.54 353.37 155.75 353.37 156.14 353.38C156.59 353.4 157.15 353.43 157.85 353.46C159.4 353.56 161.53 353.69 164.12 353.86C169.48 354.25 176.76 354.78 184.8 355.36C192.85 356 200.12 356.59 205.48 357.01C208.07 357.24 210.2 357.43 211.75 357.57C212.44 357.64 213.01 357.7 213.45 357.75C213.84 357.8 214.04 357.83 214.04 357.85C214.04 357.87 213.84 357.87 213.45 357.86C213 357.84 212.44 357.81 211.75 357.78C210.2 357.68 208.08 357.55 205.48 357.38C200.12 356.99 192.84 356.46 184.79 355.88C176.74 355.24 169.46 354.65 164.11 354.23C161.52 354 159.39 353.81 157.85 353.67C157.16 353.6 156.59 353.54 156.15 353.49C155.74 353.44 155.54 353.4 155.54 353.39Z" fill="#263238"/>
<path d="M223.44 353.99C221.83 353.99 164.94 349.53 164.94 349.53L223.44 353.99Z" fill="white"/>
<path d="M164.93 349.52C164.93 349.5 165.14 349.5 165.53 349.51C165.98 349.53 166.54 349.56 167.24 349.59C168.79 349.69 170.92 349.82 173.51 349.99C178.87 350.38 186.15 350.91 194.19 351.49C202.24 352.13 209.51 352.72 214.87 353.14C217.46 353.37 219.59 353.56 221.14 353.7C221.83 353.77 222.4 353.83 222.84 353.88C223.23 353.93 223.43 353.96 223.43 353.98C223.43 354 223.23 354 222.84 353.99C222.39 353.97 221.83 353.94 221.14 353.91C219.59 353.81 217.47 353.68 214.87 353.51C209.51 353.12 202.23 352.59 194.18 352.01C186.13 351.37 178.85 350.78 173.5 350.36C170.91 350.13 168.78 349.94 167.24 349.8C166.55 349.73 165.98 349.67 165.54 349.62C165.14 349.57 164.93 349.54 164.93 349.52Z" fill="#263238"/>
<path d="M238.35 349.52C236.74 349.52 177.14 345.96 177.14 345.96L238.35 349.52Z" fill="white"/>
<path d="M177.14 345.96C177.14 345.94 177.36 345.94 177.77 345.94C178.23 345.95 178.83 345.97 179.56 345.99C181.18 346.06 183.4 346.16 186.12 346.29C191.72 346.6 199.34 347.01 207.76 347.47C216.18 347.99 223.8 348.46 229.4 348.8C232.12 348.99 234.34 349.15 235.96 349.26C236.69 349.32 237.28 349.37 237.74 349.41C238.15 349.45 238.36 349.48 238.36 349.5C238.36 349.52 238.15 349.52 237.74 349.52C237.28 349.51 236.69 349.49 235.96 349.47C234.34 349.4 232.12 349.3 229.4 349.17C223.8 348.86 216.18 348.45 207.75 347.99C199.33 347.47 191.71 347 186.11 346.66C183.39 346.47 181.17 346.31 179.55 346.2C178.82 346.14 178.23 346.09 177.77 346.05C177.36 346.01 177.14 345.98 177.14 345.96Z" fill="#263238"/>
<path d="M251.18 344.64C249.57 344.64 189.35 342.41 189.35 342.41L251.18 344.64Z" fill="white"/>
<path d="M189.35 342.41C189.35 342.39 189.57 342.38 189.98 342.38C190.45 342.38 191.05 342.39 191.78 342.4C193.41 342.44 195.66 342.49 198.41 342.56C204.06 342.74 211.76 343 220.27 343.27C228.78 343.61 236.47 343.91 242.13 344.14C244.88 344.27 247.12 344.38 248.75 344.46C249.49 344.51 250.08 344.54 250.55 344.57C250.96 344.6 251.18 344.63 251.18 344.65C251.18 344.67 250.96 344.68 250.55 344.68C250.08 344.68 249.49 344.67 248.75 344.66C247.12 344.62 244.87 344.57 242.12 344.5C236.47 344.32 228.77 344.06 220.26 343.79C211.75 343.45 204.06 343.15 198.4 342.92C195.65 342.79 193.41 342.68 191.78 342.6C191.04 342.55 190.45 342.52 189.98 342.49C189.57 342.45 189.35 342.43 189.35 342.41Z" fill="#263238"/>
<path d="M262.61 339.1C261 339.1 201.56 338.85 201.56 338.85L262.61 339.1Z" fill="white"/>
<path d="M201.57 338.85C201.57 338.71 215.24 338.65 232.09 338.71C248.95 338.78 262.62 338.95 262.62 339.09C262.62 339.23 248.95 339.29 232.09 339.23C215.23 339.17 201.56 338.99 201.57 338.85Z" fill="#263238"/>
<path d="M113.22 334.96C113.21 334.93 113.63 334.78 114.42 334.6C115.2 334.42 116.36 334.24 117.81 334.21C120.68 334.12 124.8 334.8 128.57 337.19C132.34 339.58 134.71 343.02 135.85 345.66C136.43 346.98 136.77 348.11 136.94 348.89C137.11 349.68 137.16 350.12 137.13 350.13C137.02 350.16 136.75 348.38 135.52 345.82C134.32 343.27 131.96 339.97 128.3 337.64C124.64 335.32 120.64 334.59 117.83 334.59C114.97 334.56 113.24 335.07 113.22 334.96Z" fill="#263238"/>
<path d="M122.57 332.49C122.56 332.46 122.98 332.31 123.77 332.13C124.55 331.95 125.71 331.77 127.16 331.74C130.03 331.65 134.15 332.33 137.92 334.72C141.69 337.11 144.06 340.55 145.2 343.19C145.78 344.51 146.12 345.64 146.29 346.42C146.46 347.21 146.51 347.65 146.48 347.66C146.37 347.69 146.1 345.91 144.87 343.35C143.67 340.8 141.31 337.5 137.65 335.17C133.99 332.85 129.99 332.12 127.18 332.12C124.32 332.08 122.59 332.6 122.57 332.49Z" fill="#263238"/>
<path d="M132.26 330.76C132.25 330.73 132.67 330.58 133.44 330.39C134.21 330.2 135.34 329.98 136.76 329.85C138.18 329.73 139.89 329.74 141.76 330.08C143.62 330.43 145.62 331.15 147.45 332.35C151.14 334.75 153.46 338.15 154.57 340.75C155.14 342.06 155.47 343.17 155.64 343.94C155.81 344.72 155.85 345.15 155.82 345.16C155.72 345.19 155.45 343.43 154.24 340.9C153.06 338.38 150.75 335.11 147.17 332.78C143.6 330.4 139.54 330.05 136.79 330.2C133.98 330.38 132.28 330.87 132.26 330.76Z" fill="#263238"/>
<path d="M142.59 328.63C142.58 328.6 142.98 328.46 143.72 328.26C144.46 328.06 145.55 327.81 146.92 327.65C148.29 327.49 149.96 327.44 151.77 327.8C153.58 328.15 155.48 328.96 157.21 330.17C160.72 332.58 162.91 335.9 163.98 338.43C164.52 339.7 164.83 340.78 165 341.53C165.16 342.28 165.2 342.71 165.17 342.71C165.07 342.74 164.8 341.04 163.65 338.58C162.52 336.14 160.34 332.94 156.92 330.6C155.23 329.42 153.41 328.63 151.67 328.27C149.93 327.9 148.3 327.9 146.96 328.02C144.26 328.27 142.61 328.73 142.59 328.63Z" fill="#263238"/>
<path d="M153.22 326.97C153.21 326.94 153.6 326.8 154.3 326.59C155 326.38 156.02 326.08 157.31 325.81C158.59 325.54 160.2 325.31 161.96 325.63C163.71 325.96 165.49 326.87 167.1 328.07C170.38 330.49 172.41 333.69 173.41 336.12C173.92 337.34 174.2 338.37 174.36 339.09C174.51 339.81 174.55 340.22 174.52 340.22C174.42 340.24 174.16 338.63 173.08 336.26C172.01 333.91 169.99 330.83 166.79 328.48C165.21 327.3 163.52 326.42 161.87 326.09C160.21 325.76 158.66 325.94 157.38 326.16C154.82 326.66 153.24 327.06 153.22 326.97Z" fill="#263238"/>
<path d="M148.36 298.8C151.06 299.27 153.8 298.57 156.54 298.44C159.27 298.31 162.38 299 163.79 301.35C164.85 303.12 164.65 305.42 163.79 307.29C162.93 309.16 161.48 310.7 160.07 312.2" fill="#FFBE9D"/>
<path d="M167.53 319.82L125.1 265.47C124.77 265.05 124.16 264.97 123.74 265.3L120.28 268C119.86 268.33 119.78 268.94 120.11 269.36L162.54 323.71C162.87 324.13 163.48 324.21 163.9 323.88L167.36 321.18C167.78 320.85 167.86 320.24 167.53 319.82Z" fill="#263238"/>
<path d="M124.11 266.7L120.89 262.57C120.74 262.38 120.47 262.35 120.28 262.49L118.73 263.7C118.54 263.85 118.51 264.12 118.65 264.31L121.87 268.44C122.02 268.63 122.29 268.66 122.48 268.52L124.03 267.31C124.23 267.16 124.26 266.89 124.11 266.7Z" fill="#263238"/>
<path d="M161.59 322.4L168.56 327.76L169.28 327.2L167.24 319.82L161.59 322.4Z" fill="#263238"/>
<path d="M134.57 290.65C134.53 290.65 134.5 290.63 134.47 290.6L121.03 273.39C119.39 271.29 119.51 268.45 121.29 267.06L121.94 266.56C121.99 266.52 122.07 266.53 122.12 266.58C122.16 266.63 122.15 266.71 122.1 266.76L121.46 267.26C119.79 268.57 119.69 271.25 121.25 273.24L134.69 290.45C134.73 290.5 134.72 290.58 134.67 290.63C134.62 290.64 134.59 290.65 134.57 290.65Z" fill="#263238"/>
<path d="M142.23 293.4C142.23 293.4 137.87 289.69 134.59 290.13C131.32 290.57 120.41 302.35 119.97 309.33C119.53 316.31 116.7 320.46 121.72 323.29C126.74 326.13 134.59 330.71 139.83 329.18C139.83 329.18 149.06 330.23 150.1 327.76C150.1 327.76 158.2 330.35 158.81 324.82C158.81 324.82 164.62 323.9 164.26 320.35C163.91 316.79 142.23 293.4 142.23 293.4Z" fill="#FFBE9D"/>
<path d="M158.81 324.81C158.71 324.91 153.66 320.2 147.53 314.27C141.4 308.35 136.51 303.46 136.61 303.36C136.71 303.26 141.76 307.97 147.9 313.9C154.02 319.82 158.91 324.71 158.81 324.81Z" fill="#EB996E"/>
<path d="M150.1 327.76C150.08 327.79 149.75 327.66 149.15 327.39C148.55 327.13 147.72 326.69 146.71 326.1C144.69 324.93 142.06 323.05 139.36 320.74C136.66 318.43 134.35 316.2 132.68 314.58C131.92 313.83 131.27 313.18 130.73 312.64C130.27 312.18 130.03 311.91 130.06 311.88C130.08 311.85 130.37 312.07 130.87 312.49C131.37 312.91 132.07 313.53 132.94 314.31C134.67 315.86 137.02 318.04 139.71 320.34C142.4 322.63 144.96 324.54 146.92 325.78C148.86 327.04 150.14 327.68 150.1 327.76Z" fill="#EB996E"/>
<path d="M140.08 328.8C140.05 328.86 139.09 328.51 137.61 327.76C136.13 327.01 134.16 325.85 132.08 324.41C130 322.97 128.21 321.54 126.98 320.44C125.74 319.34 125.05 318.58 125.1 318.53C125.15 318.47 125.93 319.14 127.22 320.16C128.51 321.18 130.32 322.55 132.38 323.98C134.44 325.41 136.37 326.61 137.79 327.43C139.21 328.27 140.12 328.73 140.08 328.8Z" fill="#EB996E"/>
<path d="M346.79 296.66C346.79 296.66 337.93 291.81 326.03 294.13C314.13 296.45 289.2 302.39 280.58 303.39C271.96 304.38 235.54 312.52 235.54 312.52L239.37 334.15L358.18 333.89C360.36 320.86 364.37 304.69 346.79 296.66Z" fill="#FFBE9D"/>
<path d="M231.4 334.15H239.37L252.22 308.88C250.57 308.6 216.26 303.53 214.24 304.08L206.01 333.31C206.02 333.32 230.67 334.15 231.4 334.15Z" fill="#FFBE9D"/>
<path d="M207.94 333.78C207.97 333.83 208.17 333.87 208.51 333.91C211.34 334.22 224.43 333.42 224.43 333.42C225.03 331.73 223.9 326.65 222.27 326.36C220.64 326.06 206.71 327 206.71 327C206.71 327 204.52 327.29 203.97 330.97C203.64 333.25 207.94 333.78 207.94 333.78Z" fill="#FFBE9D"/>
<path d="M203.52 326.34C203.55 326.39 203.75 326.43 204.09 326.47C206.92 326.78 219.29 326.64 219.83 325.14C220.43 323.45 219.48 319.22 217.85 318.92C216.22 318.62 202.29 319.56 202.29 319.56C202.29 319.56 200.1 319.85 199.55 323.53C199.22 325.82 203.52 326.34 203.52 326.34Z" fill="#FFBE9D"/>
<path d="M201.33 319.08C201.36 319.13 201.56 319.17 201.9 319.21C204.73 319.52 217.1 319.38 217.64 317.88C218.24 316.19 217.29 311.96 215.66 311.66C214.03 311.36 200.1 312.3 200.1 312.3C200.1 312.3 197.91 312.59 197.36 316.27C197.02 318.55 201.33 319.08 201.33 319.08Z" fill="#FFBE9D"/>
<path d="M199.27 311.85C199.3 311.9 199.5 311.94 199.84 311.98C202.67 312.29 215.04 312.15 215.58 310.65C216.18 308.96 215.23 304.73 213.6 304.43C211.97 304.13 198.04 305.07 198.04 305.07C198.04 305.07 195.85 305.36 195.3 309.04C194.96 311.32 199.27 311.85 199.27 311.85Z" fill="#FFBE9D"/>
<path d="M218.65 326.29C218.63 326.5 215.93 326.75 212.63 326.85C209.32 326.94 206.65 326.85 206.67 326.64C206.69 326.43 209.38 326.18 212.69 326.08C216 325.98 218.67 326.08 218.65 326.29Z" fill="#EB996E"/>
<path d="M218.72 319C218.73 319.21 214.89 319.51 210.16 319.66C205.42 319.81 201.58 319.76 201.57 319.54C201.56 319.33 205.4 319.03 210.13 318.88C214.87 318.73 218.71 318.78 218.72 319Z" fill="#EB996E"/>
<path d="M218.13 311.58C218.14 311.8 214.3 312.09 209.57 312.24C204.83 312.39 200.99 312.34 200.98 312.12C200.97 311.9 204.81 311.61 209.54 311.46C214.28 311.32 218.13 311.37 218.13 311.58Z" fill="#EB996E"/>
<path d="M237.99 307C237.99 307 214.64 296.62 213.18 298.12C211.72 299.62 209.47 304.44 209.47 304.44L237.99 307Z" fill="#FFBE9D"/>
<path d="M388.332 123.276C414.514 109.213 424.339 76.5886 410.276 50.4066C396.213 24.2247 363.589 14.4001 337.407 28.4629C311.225 42.5257 301.4 75.1504 315.463 101.332C329.526 127.514 362.15 137.339 388.332 123.276Z" fill="#EBEBEB"/>
<path d="M309.165 72.3428C309.165 72.3428 309.175 72.6428 309.175 73.2128C309.175 73.8028 309.165 74.6528 309.165 75.7728C309.165 76.3328 309.155 76.9628 309.145 77.6528C309.175 78.3428 309.265 79.1028 309.335 79.9228C309.405 80.7428 309.485 81.6228 309.575 82.5628C309.595 83.0328 309.685 83.5128 309.785 84.0128C309.885 84.5028 309.975 85.0128 310.075 85.5428C310.745 89.7528 312.355 94.7928 315.075 100.193C317.815 105.573 321.915 111.283 327.685 116.273C328.405 116.893 329.145 117.513 329.885 118.153C330.665 118.743 331.485 119.283 332.295 119.863C333.125 120.413 333.905 121.063 334.805 121.543C335.695 122.043 336.585 122.553 337.495 123.063C337.945 123.313 338.395 123.583 338.865 123.823C339.345 124.033 339.825 124.243 340.315 124.463C341.285 124.893 342.265 125.323 343.255 125.763C344.255 126.173 345.315 126.453 346.355 126.813C347.405 127.123 348.435 127.573 349.545 127.763C351.735 128.223 353.935 128.823 356.255 128.993C357.405 129.113 358.555 129.293 359.735 129.353C360.905 129.373 362.095 129.383 363.285 129.403C363.885 129.403 364.485 129.443 365.075 129.403C365.675 129.353 366.275 129.303 366.875 129.243C368.075 129.123 369.295 129.063 370.505 128.893C372.905 128.403 375.385 128.093 377.775 127.273C378.375 127.093 378.985 126.913 379.595 126.743C379.895 126.653 380.205 126.573 380.505 126.473L381.385 126.113C382.565 125.633 383.755 125.153 384.945 124.673C386.115 124.133 387.245 123.493 388.405 122.903C388.975 122.593 389.575 122.333 390.125 121.963L391.775 120.893C394.045 119.543 396.065 117.803 398.175 116.143C399.145 115.213 400.115 114.273 401.085 113.333L401.815 112.623L402.485 111.853L403.815 110.293L405.155 108.733L406.345 107.043L407.535 105.343L408.135 104.493C408.315 104.193 408.475 103.893 408.655 103.593C409.335 102.383 410.025 101.163 410.715 99.9428C411.285 98.6628 411.855 97.3728 412.425 96.0828C414.515 90.8328 415.835 85.2028 416.285 79.4028C416.585 73.6028 416.025 67.8428 414.635 62.3628C414.235 61.0028 413.845 59.6528 413.445 58.3128C412.925 57.0128 412.395 55.7128 411.875 54.4228L411.485 53.4528L411.005 52.5328L410.045 50.6928L409.085 48.8628L407.965 47.1328L406.845 45.4128L406.285 44.5628L405.655 43.7628C404.815 42.7028 403.975 41.6428 403.135 40.5928C401.265 38.6628 399.485 36.6728 397.405 35.0428L395.905 33.7628C395.415 33.3328 394.845 32.9928 394.325 32.6128C393.255 31.8728 392.215 31.0928 391.125 30.4028C390.005 29.7728 388.885 29.1328 387.785 28.5128L386.955 28.0428C386.675 27.9028 386.375 27.7828 386.085 27.6528C385.505 27.3928 384.925 27.1428 384.355 26.8828C382.095 25.7628 379.685 25.1228 377.365 24.3228C376.185 23.9928 374.985 23.7828 373.805 23.5028C373.215 23.3728 372.625 23.2428 372.035 23.1128C371.445 22.9928 370.845 22.9628 370.255 22.8828C369.075 22.7428 367.895 22.6028 366.725 22.4728C365.555 22.3828 364.385 22.4128 363.235 22.3828C360.915 22.2428 358.655 22.5528 356.425 22.7228C355.305 22.7628 354.225 23.0728 353.145 23.2428C352.065 23.4628 350.985 23.6128 349.935 23.8828C348.895 24.1828 347.875 24.4828 346.855 24.7828C346.345 24.9328 345.835 25.0828 345.335 25.2228C344.845 25.4128 344.365 25.6128 343.875 25.8028C342.915 26.1928 341.955 26.5728 341.015 26.9528C340.065 27.3128 339.205 27.8528 338.305 28.2928C337.425 28.7628 336.535 29.1928 335.685 29.6728C334.865 30.2028 334.055 30.7228 333.255 31.2428C326.885 35.4428 322.075 40.5628 318.655 45.5428C315.255 50.5428 312.995 55.3228 311.785 59.4128C311.615 59.9228 311.455 60.4128 311.295 60.8928C311.125 61.3628 310.985 61.8328 310.895 62.3028C310.685 63.2228 310.495 64.0928 310.315 64.8928C310.145 65.6928 309.945 66.4328 309.835 67.1128C309.755 67.8028 309.675 68.4228 309.605 68.9828C309.465 70.0928 309.355 70.9328 309.285 71.5228C309.225 72.0528 309.165 72.3428 309.165 72.3428C309.165 72.3428 309.185 72.0528 309.235 71.4728C309.295 70.8828 309.385 70.0328 309.505 68.9228C309.565 68.3628 309.635 67.7328 309.715 67.0428C309.825 66.3528 310.005 65.6228 310.175 64.8128C310.345 64.0028 310.535 63.1428 310.735 62.2128C310.815 61.7428 310.955 61.2728 311.125 60.7928C311.285 60.3128 311.445 59.8128 311.605 59.3028C312.795 55.1928 315.035 50.3728 318.425 45.3328C321.845 40.3128 326.665 35.1428 333.065 30.8928C333.865 30.3728 334.685 29.8428 335.505 29.3028C336.355 28.8128 337.245 28.3828 338.135 27.9028C339.035 27.4628 339.895 26.9128 340.855 26.5428C341.805 26.1628 342.765 25.7728 343.735 25.3728C344.225 25.1828 344.705 24.9828 345.205 24.7828C345.715 24.6328 346.225 24.4828 346.735 24.3328C347.755 24.0328 348.795 23.7228 349.835 23.4228C350.885 23.1428 351.975 22.9928 353.065 22.7728C354.155 22.5928 355.245 22.2828 356.375 22.2428C358.625 22.0628 360.905 21.7528 363.245 21.8828C364.415 21.9128 365.585 21.8828 366.765 21.9728C367.945 22.1128 369.125 22.2428 370.325 22.3828C370.925 22.4628 371.525 22.5028 372.115 22.6128C372.705 22.7428 373.305 22.8728 373.895 23.0028C375.085 23.2828 376.295 23.4928 377.485 23.8228C379.825 24.6228 382.255 25.2628 384.545 26.3928C385.125 26.6528 385.705 26.9028 386.295 27.1628C386.585 27.2928 386.885 27.4128 387.165 27.5528L388.005 28.0228C389.125 28.6528 390.245 29.2928 391.385 29.9328C392.485 30.6228 393.535 31.4128 394.615 32.1528C395.145 32.5428 395.715 32.8828 396.215 33.3128L397.725 34.6028C399.825 36.2528 401.615 38.2528 403.505 40.2028C404.355 41.2628 405.195 42.3328 406.055 43.4028L406.695 44.2028L407.265 45.0628L408.395 46.7928L409.525 48.5328L410.495 50.3828L411.465 52.2428L411.955 53.1728L412.355 54.1428C412.885 55.4428 413.405 56.7528 413.935 58.0728C414.335 59.4328 414.735 60.7928 415.135 62.1628C416.545 67.6928 417.105 73.5128 416.805 79.3728C416.345 85.2228 415.015 90.9128 412.905 96.2128C412.325 97.5128 411.755 98.8128 411.175 100.113C410.475 101.343 409.785 102.573 409.095 103.793C408.915 104.093 408.755 104.403 408.575 104.703L407.975 105.563L406.775 107.273L405.575 108.973L404.225 110.553L402.885 112.123L402.215 112.903L401.475 113.613C400.485 114.563 399.505 115.513 398.535 116.453C396.405 118.133 394.365 119.883 392.075 121.243L390.405 122.323C389.855 122.683 389.245 122.953 388.665 123.263C387.495 123.853 386.355 124.503 385.175 125.043C383.965 125.533 382.775 126.013 381.575 126.493L380.685 126.853C380.385 126.953 380.075 127.033 379.765 127.133C379.155 127.313 378.545 127.493 377.935 127.673C375.525 128.493 373.025 128.813 370.605 129.303C369.385 129.473 368.155 129.533 366.935 129.653C366.325 129.703 365.725 129.753 365.115 129.803C364.515 129.843 363.905 129.793 363.305 129.803C362.105 129.783 360.905 129.763 359.725 129.743C358.545 129.683 357.375 129.493 356.225 129.373C353.895 129.203 351.675 128.593 349.465 128.123C348.345 127.933 347.315 127.483 346.255 127.163C345.205 126.803 344.145 126.503 343.135 126.093C342.135 125.653 341.155 125.213 340.175 124.783C339.685 124.563 339.205 124.353 338.715 124.133C338.245 123.883 337.795 123.613 337.335 123.363C336.425 122.843 335.525 122.333 334.625 121.833C333.725 121.343 332.935 120.683 332.105 120.133C331.285 119.553 330.465 119.003 329.675 118.403C328.935 117.763 328.195 117.133 327.465 116.503C321.675 111.453 317.575 105.703 314.845 100.273C312.135 94.8328 310.545 89.7628 309.905 85.5328C309.805 85.0028 309.715 84.4928 309.625 83.9928C309.525 83.4928 309.445 83.0128 309.425 82.5428C309.345 81.5928 309.275 80.7128 309.205 79.8928C309.145 79.0728 309.055 78.3128 309.045 77.6228C309.065 76.9328 309.075 76.3028 309.085 75.7328C309.115 74.6128 309.135 73.7628 309.145 73.1728C309.145 72.6328 309.165 72.3428 309.165 72.3428Z" fill="#263238"/>
<path d="M387.295 77.5227C387.295 77.5627 386.625 77.6127 385.395 77.6527C384.045 77.6827 382.295 77.7127 380.165 77.7627C375.725 77.8227 369.545 77.8627 362.565 77.8727H362.215V77.5227C362.215 76.4027 362.215 75.2327 362.215 74.0327C362.215 66.2427 362.255 59.1827 362.315 54.0727C362.365 51.6127 362.395 49.5727 362.425 48.0227C362.465 46.5927 362.515 45.8027 362.565 45.8027C362.615 45.8027 362.655 46.5927 362.705 48.0227C362.735 49.5727 362.775 51.6127 362.815 54.0727C362.875 59.1827 362.915 66.2327 362.915 74.0327C362.915 75.2227 362.915 76.4027 362.915 77.5227L362.565 77.1727C369.545 77.1827 375.725 77.2227 380.165 77.2827C382.295 77.3227 384.045 77.3627 385.395 77.3927C386.615 77.4327 387.295 77.4727 387.295 77.5227Z" fill="#263238"/>
<path d="M362.725 30.8928C362.915 30.8928 363.075 32.9128 363.075 35.4128C363.075 37.9128 362.915 39.9328 362.725 39.9328C362.535 39.9328 362.375 37.9128 362.375 35.4128C362.375 32.9228 362.535 30.8928 362.725 30.8928Z" fill="#263238"/>
<path d="M387.245 38.1528C387.385 38.2928 386.085 39.8128 384.345 41.5528C382.605 43.2928 381.085 44.5928 380.945 44.4528C380.805 44.3128 382.105 42.7928 383.845 41.0528C385.585 39.3228 387.105 38.0228 387.245 38.1528Z" fill="#263238"/>
<path d="M401.575 53.8127C401.665 53.9927 399.955 55.0127 397.865 56.2827C395.775 57.5527 394.075 58.5927 393.965 58.4327C393.855 58.2827 395.385 56.9727 397.505 55.6827C399.625 54.4027 401.495 53.6427 401.575 53.8127Z" fill="#263238"/>
<path d="M409.975 77.0529C409.975 77.2429 407.215 77.4029 403.815 77.4029C400.415 77.4029 397.655 77.2429 397.655 77.0529C397.655 76.8629 400.415 76.7029 403.815 76.7029C407.215 76.7029 409.975 76.8629 409.975 77.0529Z" fill="#263238"/>
<path d="M324.515 76.2328C324.515 76.4228 321.905 76.5828 318.695 76.5828C315.475 76.5828 312.875 76.4228 312.875 76.2328C312.875 76.0428 315.485 75.8828 318.695 75.8828C321.905 75.8828 324.515 76.0428 324.515 76.2328Z" fill="#263238"/>
<path d="M330.554 93.5328C330.684 93.6728 328.714 95.4628 326.154 97.5228C323.594 99.5828 321.434 101.123 321.314 100.973C321.204 100.823 323.164 99.0328 325.714 96.9828C328.264 94.9328 330.434 93.3928 330.554 93.5328Z" fill="#263238"/>
<path d="M345.465 106.913C345.625 107.033 344.165 109.273 342.475 112.103C340.775 114.923 339.475 117.273 339.295 117.183C339.125 117.103 340.155 114.603 341.875 111.743C343.595 108.883 345.315 106.803 345.465 106.913Z" fill="#263238"/>
<path d="M362.725 124.173C362.535 124.173 362.375 121.413 362.375 118.013C362.375 114.613 362.535 111.853 362.725 111.853C362.915 111.853 363.075 114.613 363.075 118.013C363.075 121.413 362.915 124.173 362.725 124.173Z" fill="#263238"/>
<path d="M389.295 115.953C389.195 116.103 386.785 114.723 384.215 112.473C381.635 110.233 379.935 108.033 380.075 107.913C380.225 107.783 382.135 109.743 384.675 111.943C387.195 114.163 389.405 115.793 389.295 115.953Z" fill="#263238"/>
<path d="M401.755 102.533C401.615 102.673 399.795 101.063 397.675 98.9427C395.555 96.8227 393.945 94.9927 394.085 94.8627C394.225 94.7227 396.045 96.3327 398.165 98.4527C400.285 100.563 401.895 102.393 401.755 102.533Z" fill="#263238"/>
<path d="M329.995 59.6628C329.855 59.8028 328.245 58.4028 326.395 56.5528C324.545 54.7028 323.145 53.0828 323.285 52.9528C323.425 52.8128 325.035 54.2128 326.885 56.0628C328.735 57.9128 330.125 59.5228 329.995 59.6628Z" fill="#263238"/>
<path d="M345.374 43.4527C345.234 43.5927 343.654 42.2327 341.834 40.4227C340.014 38.6127 338.654 37.0327 338.784 36.8927C338.924 36.7527 340.504 38.1127 342.324 39.9227C344.144 41.7327 345.514 43.3127 345.374 43.4527Z" fill="#263238"/>
</g>
<defs>
<clipPath id="clip0_586_2863">
<rect width="413" height="364" fill="white" transform="translate(38)"/>
</clipPath>
</defs>
</svg>
