<svg width="410" height="410" viewBox="0 0 410 410" fill="none" xmlns="http://www.w3.org/2000/svg">
<path fill-rule="evenodd" clip-rule="evenodd" d="M215.5 5.23356C273.386 2.21849 340.048 -12.9415 381.23 27.9626C422.474 68.9289 407.941 135.984 405.703 194.155C403.595 248.935 405.157 306.954 368.917 347.999C330.957 390.99 272.711 407.149 215.5 409.571C155.373 412.116 91.1175 404.23 48.5598 361.561C5.99941 318.889 -2.6938 254.414 0.645609 194.155C3.7814 137.57 23.645 81.7382 66.1374 44.3747C106.36 9.00708 162.077 8.01623 215.5 5.23356Z" fill="#858D94"/>
<g clip-path="url(#clip0_586_2861)">
<path d="M110.17 360.96L110.99 385.85L117.31 405.35C117.77 406.76 116.94 408.25 115.5 408.61C114.7 408.81 113.85 408.62 113.23 408.08C109.23 404.65 94.59 391.97 94.64 390.15C94.69 388.04 92.04 363.96 92.04 363.96L110.17 360.96Z" fill="#E8505B"/>
<path d="M115.5 408.61L94.54 388.47L94.6 389.52C94.65 390.43 95.02 391.29 95.65 391.96C97.33 393.73 102.08 398.51 113.16 408.09C113.79 408.64 114.68 408.84 115.5 408.61Z" fill="#E0E0E0"/>
<path d="M99.19 380.16C99.84 380.56 100.09 381.49 99.72 382.15C99.35 382.81 98.41 383.08 97.75 382.7C97.1 382.32 96.75 381.21 97.2 380.59C97.64 379.97 98.77 379.72 99.31 380.25" fill="white"/>
<path d="M109.21 398.06C109.35 398.12 109.84 396.79 111.28 396C112.7 395.17 114.09 395.45 114.11 395.29C114.13 395.23 113.8 395.05 113.22 395C112.64 394.95 111.8 395.08 111.01 395.52C110.22 395.97 109.68 396.61 109.42 397.14C109.17 397.68 109.15 398.04 109.21 398.06Z" fill="#263238"/>
<path d="M111.17 401.29C111.29 401.39 112.05 400.54 113.31 400.1C114.57 399.63 115.69 399.81 115.72 399.65C115.78 399.52 114.56 399.06 113.12 399.58C111.68 400.1 111.03 401.23 111.17 401.29Z" fill="#263238"/>
<path d="M105.68 393.98C105.8 394.09 106.95 392.77 108.86 391.92C110.75 391.03 112.5 391.02 112.5 390.85C112.53 390.72 110.67 390.47 108.63 391.42C106.59 392.34 105.55 393.92 105.68 393.98Z" fill="#263238"/>
<path d="M104.8 386.43C104.87 386.58 106.22 385.92 108 385.76C109.78 385.57 111.22 385.95 111.27 385.79C111.33 385.66 109.86 385.02 107.95 385.22C106.02 385.4 104.71 386.32 104.8 386.43Z" fill="#263238"/>
<path d="M104.37 379.13C104.46 379.27 105.79 378.36 107.68 378.34C109.57 378.28 110.94 379.13 111.02 378.98C111.06 378.93 110.77 378.63 110.18 378.33C109.59 378.03 108.69 377.77 107.67 377.79C106.65 377.81 105.76 378.11 105.18 378.44C104.61 378.77 104.33 379.08 104.37 379.13Z" fill="#263238"/>
<path d="M107.56 376.96C107.59 376.96 107.63 376.62 107.54 376.02C107.45 375.42 107.23 374.54 106.66 373.6C106.37 373.15 106.05 372.57 105.34 372.29C104.99 372.14 104.47 372.24 104.2 372.58C103.93 372.92 103.86 373.33 103.87 373.72C103.98 375.3 105.42 376.75 107.21 376.88C109 376.98 110.56 375.87 111.19 374.47C111.33 374.11 111.41 373.67 111.19 373.26C110.98 372.85 110.46 372.71 110.11 372.79C109.38 372.94 108.94 373.39 108.52 373.73C107.7 374.47 107.21 375.22 106.93 375.76C106.65 376.3 106.57 376.63 106.6 376.64C106.69 376.7 107.16 375.38 108.77 374.03C109.18 373.72 109.65 373.32 110.18 373.24C110.44 373.2 110.67 373.29 110.77 373.49C110.88 373.69 110.84 374 110.72 374.28C110.19 375.43 108.76 376.44 107.24 376.33C105.73 376.24 104.47 374.96 104.37 373.69C104.35 373.38 104.41 373.07 104.57 372.88C104.72 372.69 104.96 372.63 105.2 372.71C105.69 372.88 106.05 373.38 106.34 373.8C107.48 375.57 107.45 376.99 107.56 376.96Z" fill="#263238"/>
<path d="M158.61 364.66L157.32 383.27C157.32 383.27 175.8 390.83 175.9 394.29L139.73 393.09L140.55 364.01L158.61 364.66Z" fill="#E8505B"/>
<path d="M146.19 381.33C145.48 381.5 144.97 382.27 145.11 382.98C145.25 383.69 146.03 384.22 146.74 384.06C147.45 383.9 148.09 383 147.87 382.3C147.65 381.61 146.7 381.04 146.05 381.36" fill="#E0E0E0"/>
<path d="M139.73 393.09L139.93 390.16L174.54 392.41C174.54 392.41 176.13 393.16 175.91 394.29L139.73 393.09Z" fill="#E0E0E0"/>
<path d="M157.92 383.1C157.91 383.28 157.02 383.33 156.13 383.87C155.23 384.39 154.75 385.14 154.59 385.06C154.43 385.02 154.73 383.97 155.81 383.34C156.9 382.7 157.96 382.94 157.92 383.1Z" fill="#263238"/>
<path d="M161.66 384.8C161.69 384.97 160.92 385.25 160.29 385.97C159.64 386.68 159.47 387.48 159.29 387.47C159.12 387.49 159.04 386.45 159.83 385.56C160.62 384.67 161.66 384.63 161.66 384.8Z" fill="#263238"/>
<path d="M163.66 389.41C163.5 389.44 163.28 388.55 163.77 387.6C164.25 386.64 165.09 386.29 165.16 386.44C165.26 386.59 164.7 387.09 164.31 387.88C163.91 388.66 163.84 389.4 163.66 389.41Z" fill="#263238"/>
<path d="M157.74 378.83C157.66 378.99 156.86 378.72 155.86 378.75C154.86 378.76 154.07 379.07 153.98 378.92C153.88 378.79 154.66 378.16 155.84 378.14C157.02 378.1 157.83 378.69 157.74 378.83Z" fill="#263238"/>
<path d="M157.93 375.07C157.93 375.14 157.23 375.23 156.12 375C155.57 374.89 154.92 374.68 154.24 374.35C153.9 374.19 153.56 373.99 153.22 373.76C153.06 373.65 152.86 373.53 152.69 373.32C152.5 373.13 152.4 372.66 152.64 372.38C152.83 372.11 153.17 372 153.43 372C153.7 372 153.91 372.06 154.11 372.12C154.51 372.23 154.88 372.38 155.22 372.54C155.9 372.88 156.45 373.29 156.85 373.69C157.66 374.5 157.93 375.16 157.87 375.2C157.79 375.26 157.4 374.69 156.57 374.02C156.15 373.69 155.62 373.34 154.98 373.06C154.66 372.92 154.32 372.8 153.95 372.7C153.57 372.59 153.24 372.57 153.14 372.74C153.1 372.8 153.1 372.83 153.17 372.94C153.25 373.05 153.4 373.15 153.56 373.26C153.87 373.48 154.19 373.67 154.5 373.84C155.12 374.17 155.72 374.41 156.23 374.57C157.26 374.9 157.94 374.97 157.93 375.07Z" fill="#263238"/>
<path d="M157.69 375.32C157.63 375.35 157.3 374.7 157.27 373.55C157.26 372.98 157.34 372.3 157.58 371.57C157.7 371.21 157.87 370.84 158.08 370.49C158.3 370.14 158.58 369.67 159.27 369.61C159.63 369.61 159.92 369.9 160.01 370.14C160.12 370.39 160.14 370.6 160.17 370.81C160.22 371.23 160.2 371.65 160.13 372.03C159.99 372.8 159.65 373.43 159.29 373.88C158.55 374.79 157.81 374.98 157.79 374.92C157.73 374.83 158.36 374.51 158.93 373.63C159.21 373.19 159.47 372.62 159.56 371.95C159.61 371.62 159.61 371.26 159.56 370.9C159.52 370.51 159.38 370.2 159.24 370.23C159.06 370.22 158.74 370.5 158.59 370.8C158.39 371.12 158.23 371.45 158.11 371.77C157.86 372.42 157.74 373.04 157.7 373.57C157.62 374.62 157.79 375.29 157.69 375.32Z" fill="#263238"/>
<path d="M84.25 181.02L89.6 381.06L118.13 380.2L124.93 174.2L84.25 181.02Z" fill="#263238"/>
<path d="M143.56 173.86C143.56 173.86 164.74 258.66 165.39 273.12C166.04 287.58 160.86 377.96 160.86 377.96H132.92L135.25 275.04L114.03 187.94L119.17 174.3L143.56 173.86Z" fill="#263238"/>
<path d="M126.32 184.27C126.33 184.27 126.33 184.36 126.33 184.54C126.33 184.75 126.32 185.01 126.31 185.33C126.28 186.07 126.24 187.09 126.2 188.38C126.08 191.07 125.9 194.88 125.69 199.58C125.2 209.07 124.54 222.12 123.8 236.53C123 250.94 122.28 263.99 121.76 273.48C121.48 278.18 121.24 281.99 121.08 284.68C120.99 285.97 120.92 286.99 120.87 287.72C120.84 288.04 120.82 288.3 120.8 288.51C120.78 288.69 120.77 288.78 120.76 288.78C120.75 288.78 120.75 288.69 120.75 288.51C120.75 288.3 120.76 288.04 120.77 287.72C120.8 286.98 120.84 285.97 120.88 284.67C121 281.98 121.18 278.17 121.39 273.47C121.88 263.98 122.54 250.93 123.28 236.51C124.08 222.1 124.8 209.06 125.32 199.57C125.6 194.87 125.84 191.06 126 188.38C126.09 187.09 126.16 186.07 126.21 185.34C126.24 185.02 126.26 184.76 126.28 184.55C126.29 184.36 126.31 184.27 126.32 184.27Z" fill="#455A64"/>
<path d="M123.18 65.11C123.18 65.11 133.54 116.55 133.7 131.04C133.85 145.53 138.94 173.85 138.94 173.85H94.04L93.07 95.48L89.87 72.1L96.61 62.49L123.18 65.11Z" fill="#F5F5F5"/>
<path d="M123.73 66.6299C123.73 66.6299 134.44 69.7799 137.27 73.7399C139.5 76.8699 142.52 136.03 142.52 136.03L147.12 188.14L142.63 187.72L136.29 168.21L123.73 66.6299Z" fill="#E8505B"/>
<path d="M137.27 73.74L167.51 101.49L204.72 89.43L212.13 105.05L172.43 123.07C166.76 125.49 163.2 124.16 159.26 121L138.43 104.32L137.27 73.74Z" fill="#E8505B"/>
<path d="M197.8 94.4099C198.01 94.8099 197.86 95.2999 197.46 95.5099C197.06 95.7199 196.57 95.5699 196.36 95.1699C196.15 94.7699 196.3 94.2799 196.7 94.0699C197.09 93.8599 197.58 94.0099 197.8 94.4099Z" fill="#263238"/>
<path d="M197.08 95.6298C197 95.6298 196.92 95.6198 196.84 95.5898C196.62 95.5298 196.45 95.3798 196.34 95.1798C196.23 94.9798 196.21 94.7498 196.28 94.5398C196.35 94.3298 196.49 94.1498 196.69 94.0398C196.89 93.9298 197.12 93.9098 197.33 93.9798C197.54 94.0498 197.72 94.1898 197.83 94.3898C197.94 94.5898 197.96 94.8198 197.89 95.0298C197.83 95.2398 197.68 95.4198 197.48 95.5298C197.35 95.5998 197.21 95.6298 197.08 95.6298ZM197.08 93.9998C196.95 93.9998 196.83 94.0298 196.71 94.0898C196.52 94.1898 196.39 94.3598 196.33 94.5598C196.27 94.7598 196.29 94.9798 196.39 95.1598C196.49 95.3498 196.66 95.4798 196.86 95.5398C197.06 95.5998 197.28 95.5798 197.46 95.4798C197.65 95.3798 197.78 95.2098 197.84 95.0098C197.9 94.8098 197.88 94.5898 197.78 94.4098C197.63 94.1498 197.36 93.9998 197.08 93.9998Z" fill="#263238"/>
<path d="M200.92 93.6699C201.13 94.0699 200.98 94.5599 200.58 94.7699C200.18 94.9799 199.69 94.8299 199.48 94.4299C199.27 94.0299 199.42 93.5399 199.82 93.3299C200.21 93.1199 200.7 93.2699 200.92 93.6699Z" fill="#263238"/>
<path d="M200.2 94.8898C200.12 94.8898 200.04 94.8798 199.96 94.8498C199.74 94.7798 199.57 94.6398 199.46 94.4398C199.24 94.0298 199.4 93.5198 199.81 93.2998C200.01 93.1998 200.24 93.1698 200.45 93.2398C200.66 93.3098 200.84 93.4498 200.95 93.6498C201.06 93.8498 201.08 94.0798 201.01 94.2898C200.94 94.4998 200.8 94.6798 200.6 94.7898C200.47 94.8598 200.33 94.8898 200.2 94.8898ZM200.19 93.2598C200.06 93.2598 199.93 93.2898 199.82 93.3498C199.44 93.5598 199.29 94.0398 199.5 94.4198C199.6 94.6098 199.77 94.7398 199.97 94.7998C200.17 94.8598 200.39 94.8398 200.57 94.7398C200.95 94.5298 201.1 94.0498 200.9 93.6698C200.8 93.4798 200.63 93.3498 200.43 93.2898C200.35 93.2698 200.27 93.2598 200.19 93.2598Z" fill="#263238"/>
<path d="M203.88 93.0698C204.09 93.4698 203.94 93.9598 203.54 94.1698C203.14 94.3798 202.65 94.2298 202.44 93.8298C202.23 93.4298 202.38 92.9398 202.78 92.7298C203.18 92.5198 203.67 92.6698 203.88 93.0698Z" fill="#263238"/>
<path d="M203.17 94.2898C203.09 94.2898 203.01 94.2798 202.92 94.2498C202.71 94.1798 202.53 94.0398 202.42 93.8398C202.31 93.6398 202.29 93.4098 202.36 93.1998C202.43 92.9798 202.57 92.8098 202.77 92.6998C203.18 92.4798 203.69 92.6398 203.91 93.0498C204.13 93.4598 203.97 93.9698 203.56 94.1898C203.44 94.2598 203.3 94.2898 203.17 94.2898ZM203.16 92.6598C203.03 92.6598 202.91 92.6898 202.79 92.7498C202.6 92.8498 202.47 93.0198 202.41 93.2198C202.35 93.4198 202.37 93.6398 202.47 93.8198C202.57 94.0098 202.74 94.1398 202.94 94.1998C203.14 94.2598 203.36 94.2398 203.54 94.1398C203.92 93.9298 204.07 93.4498 203.87 93.0698C203.72 92.8098 203.45 92.6598 203.16 92.6598Z" fill="#263238"/>
<path d="M205.09 90.2099L207.97 89.1599L214.58 103.08L211.77 104.28L205.09 90.2099Z" fill="#E0E0E0"/>
<path d="M138.24 84.7C138.28 84.7 138.33 85.25 138.41 86.26C138.52 87.35 138.67 88.78 138.84 90.5C139.26 94.17 139.81 99.06 140.42 104.48C141.02 109.94 141.51 114.9 141.73 118.5C141.85 120.3 141.9 121.76 141.91 122.77C141.91 123.78 141.89 124.34 141.86 124.34C141.82 124.34 141.77 123.78 141.71 122.78C141.64 121.78 141.53 120.33 141.36 118.53C141.04 114.95 140.5 110 139.9 104.54C139.3 99.08 138.76 94.13 138.47 90.54C138.32 88.74 138.24 87.29 138.2 86.28C138.19 85.26 138.2 84.7 138.24 84.7Z" fill="#263238"/>
<path d="M144.85 91.65C144.99 91.69 144.14 95.03 142.96 99.11C141.78 103.19 140.7 106.46 140.57 106.42C140.44 106.38 141.28 103.04 142.46 98.96C143.64 94.88 144.71 91.6 144.85 91.65Z" fill="#263238"/>
<path d="M167.19 110.86C167.13 110.89 166.82 110.41 166.52 109.54C166.22 108.67 165.98 107.4 166.07 105.99C166.16 104.58 166.56 103.34 166.96 102.52C167.36 101.69 167.74 101.26 167.79 101.29C167.94 101.36 166.74 103.31 166.59 106.02C166.4 108.73 167.35 110.81 167.19 110.86Z" fill="#263238"/>
<path d="M163.73 143L167.6 143.3L166.07 159.45L162.33 159.03L163.73 143Z" fill="#E0E0E0"/>
<path d="M96.62 63.6199L75.76 76.9199C70.86 80.3599 68.81 86.6099 70.7 92.2899L86.71 142.58L80.94 188.28L126.67 186.34L125.56 166.31L121.68 130.47C120.96 123.82 119.31 117.31 116.77 111.13L96.62 63.6199Z" fill="#E8505B"/>
<path d="M74.82 95.0499L95.69 138.73C97.38 142.26 100.57 144.83 104.37 145.73L162.29 159.45L163.77 142.59L119.56 125.96L97.32 83.2699C93.94 76.7799 85.77 74.4799 79.5 78.2599C73.74 81.7399 71.69 89.0999 74.82 95.0499Z" fill="#E8505B"/>
<path d="M163.77 142.59C163.77 142.6 163.69 142.58 163.53 142.53C163.35 142.47 163.13 142.39 162.85 142.3C162.22 142.07 161.34 141.76 160.23 141.36C157.92 140.51 154.62 139.3 150.53 137.79C142.28 134.71 130.82 130.42 117.84 125.57L117.75 125.53L117.7 125.44C116.47 122.99 115.17 120.43 113.85 117.82C110.22 110.76 106.61 104.11 103.23 98.11C101.54 95.11 99.91 92.28 98.37 89.63C97.6 88.31 96.85 87.04 96.13 85.81C95.78 85.19 95.41 84.6 95.03 84.05C94.68 83.47 94.25 82.97 93.85 82.47C92.2 80.48 90.18 79.19 88.29 78.44C86.39 77.69 84.6 77.46 83.16 77.53C80.23 77.63 78.89 78.77 78.87 78.68C78.86 78.67 78.95 78.61 79.11 78.51C79.28 78.4 79.52 78.23 79.88 78.09C80.58 77.77 81.68 77.41 83.15 77.33C84.61 77.24 86.44 77.43 88.4 78.18C90.34 78.92 92.43 80.23 94.13 82.25C94.55 82.76 94.99 83.27 95.35 83.85C95.75 84.42 96.12 85.01 96.47 85.62C97.2 86.84 97.96 88.11 98.74 89.42C100.3 92.06 101.94 94.88 103.64 97.88C107.04 103.87 110.67 110.51 114.3 117.58C115.64 120.18 116.93 122.76 118.14 125.21L118 125.08C130.95 129.99 142.39 134.33 150.63 137.46C154.7 139.03 157.98 140.29 160.27 141.17C161.37 141.6 162.24 141.95 162.86 142.19C163.13 142.3 163.35 142.39 163.53 142.47C163.7 142.54 163.77 142.58 163.77 142.59Z" fill="#263238"/>
<path d="M153.93 153.1C153.93 153.55 153.56 153.92 153.11 153.92C152.66 153.92 152.29 153.55 152.29 153.1C152.29 152.65 152.66 152.28 153.11 152.28C153.56 152.28 153.93 152.65 153.93 153.1Z" fill="#263238"/>
<path d="M153.11 153.94C152.65 153.94 152.27 153.56 152.27 153.1C152.27 152.64 152.65 152.26 153.11 152.26C153.57 152.26 153.95 152.64 153.95 153.1C153.95 153.56 153.57 153.94 153.11 153.94ZM153.11 152.31C152.67 152.31 152.32 152.67 152.32 153.1C152.32 153.54 152.68 153.89 153.11 153.89C153.55 153.89 153.9 153.53 153.9 153.1C153.9 152.66 153.55 152.31 153.11 152.31Z" fill="#263238"/>
<path d="M157.03 153.92C157.03 154.37 156.66 154.74 156.21 154.74C155.76 154.74 155.39 154.37 155.39 153.92C155.39 153.47 155.76 153.1 156.21 153.1C156.66 153.1 157.03 153.46 157.03 153.92Z" fill="#263238"/>
<path d="M156.21 154.76C155.75 154.76 155.37 154.38 155.37 153.92C155.37 153.46 155.75 153.08 156.21 153.08C156.67 153.08 157.05 153.46 157.05 153.92C157.05 154.38 156.68 154.76 156.21 154.76ZM156.21 153.12C155.77 153.12 155.42 153.47 155.42 153.91C155.42 154.35 155.78 154.7 156.21 154.7C156.65 154.7 157 154.35 157 153.91C157 153.48 156.65 153.12 156.21 153.12Z" fill="#263238"/>
<path d="M159.11 155.61C159.563 155.61 159.93 155.243 159.93 154.79C159.93 154.337 159.563 153.97 159.11 153.97C158.657 153.97 158.29 154.337 158.29 154.79C158.29 155.243 158.657 155.61 159.11 155.61Z" fill="#263238"/>
<path d="M159.11 155.63C158.65 155.63 158.27 155.25 158.27 154.79C158.27 154.33 158.65 153.95 159.11 153.95C159.57 153.95 159.95 154.33 159.95 154.79C159.95 155.25 159.58 155.63 159.11 155.63ZM159.11 153.99C158.67 153.99 158.32 154.34 158.32 154.78C158.32 155.22 158.67 155.57 159.11 155.57C159.55 155.57 159.9 155.22 159.9 154.78C159.9 154.35 159.55 153.99 159.11 153.99Z" fill="#263238"/>
<path d="M162.29 159.45C162.29 159.46 162.19 159.44 162.01 159.41C161.8 159.36 161.53 159.3 161.2 159.23C160.45 159.05 159.41 158.8 158.08 158.48C155.34 157.8 151.43 156.84 146.63 155.66C136.96 153.29 123.61 149.93 108.81 146.5C106.96 146.06 105.12 145.71 103.32 145.22C101.53 144.73 99.75 144 98.37 142.75C96.99 141.5 96.11 139.9 95.34 138.36C94.6 136.8 93.87 135.28 93.16 133.79C90.34 127.85 87.81 122.49 85.67 117.98C83.57 113.5 81.86 109.86 80.66 107.3C80.09 106.06 79.64 105.09 79.32 104.39C79.18 104.08 79.07 103.83 78.98 103.63C78.91 103.46 78.87 103.37 78.88 103.36C78.89 103.36 78.94 103.44 79.03 103.61C79.13 103.8 79.26 104.05 79.41 104.35C79.75 105.04 80.23 106 80.84 107.22C82.08 109.76 83.83 113.38 86 117.83C88.17 122.33 90.74 127.67 93.59 133.59C94.31 135.07 95.04 136.59 95.79 138.14C96.56 139.67 97.42 141.21 98.72 142.38C100.02 143.55 101.71 144.25 103.47 144.73C105.24 145.21 107.09 145.56 108.94 146.01C123.75 149.44 137.08 152.85 146.73 155.32C151.52 156.57 155.41 157.59 158.14 158.3C159.46 158.66 160.49 158.94 161.24 159.14C161.57 159.24 161.83 159.31 162.04 159.37C162.21 159.41 162.3 159.44 162.29 159.45Z" fill="#263238"/>
<path d="M115.51 156.71C115.53 156.74 115.28 156.95 114.82 157.29C114.36 157.64 113.67 158.12 112.81 158.7C111.09 159.84 108.63 161.39 105.62 162.44C102.6 163.5 99.62 163.63 97.56 163.25C96.53 163.07 95.72 162.8 95.18 162.57C94.64 162.34 94.37 162.17 94.38 162.14C94.42 162.05 95.58 162.63 97.61 162.89C99.63 163.17 102.5 162.98 105.45 161.95C108.4 160.92 110.85 159.45 112.62 158.39C114.38 157.32 115.47 156.65 115.51 156.71Z" fill="#263238"/>
<path d="M118.05 162.51C118.07 162.51 118.12 162.63 118.19 162.89C118.28 163.14 118.36 163.52 118.46 164.01C118.64 165 118.73 166.47 118.42 168.25C118.09 170.02 117.33 172.1 115.82 173.98C114.33 175.87 112.05 177.41 109.38 178.17C106.71 178.91 103.95 178.77 101.7 177.93C99.44 177.11 97.7 175.72 96.51 174.38C95.32 173.02 94.64 171.71 94.28 170.77C94.1 170.3 93.98 169.93 93.93 169.67C93.87 169.41 93.84 169.28 93.86 169.27C93.98 169.2 94.39 171.51 96.79 174.12C97.99 175.39 99.69 176.7 101.87 177.47C104.04 178.26 106.68 178.37 109.25 177.66C111.81 176.93 114.01 175.47 115.46 173.67C116.93 171.88 117.71 169.88 118.07 168.18C118.75 164.7 117.91 162.52 118.05 162.51Z" fill="#263238"/>
<path d="M98.87 23.8001L99 61.0701C99.02 67.4101 104.34 72.4401 110.67 72.1001C116.58 71.7901 121.2 66.8901 121.17 60.9701C121.16 58.1701 121.15 55.8301 121.17 55.5401C121.17 55.5401 130.65 54.6101 131.3 45.2201C131.61 40.6801 131.5 31.2801 131.3 22.7801C131.09 13.6501 123.89 6.22015 114.77 5.70015L113.86 5.65015C104.05 5.66015 98.58 14.0001 98.87 23.8001Z" fill="#B78876"/>
<path d="M121.19 55.4002C121.19 55.4002 115.22 55.5402 109.14 51.2202C109.14 51.2202 111.65 58.1502 121.08 57.8402L121.19 55.4002Z" fill="#AA6550"/>
<path d="M99.24 30.8102C99.08 30.7302 92.89 28.5302 92.73 34.9702C92.57 41.4102 99.06 40.2402 99.08 40.0602C99.1 39.8702 99.24 30.8102 99.24 30.8102Z" fill="#B78876"/>
<path d="M97.17 37.5601C97.14 37.5401 97.06 37.6401 96.86 37.7201C96.67 37.8001 96.35 37.8501 96.02 37.7201C95.35 37.4501 94.8 36.3601 94.8 35.2001C94.8 34.6101 94.94 34.0601 95.15 33.6001C95.36 33.1301 95.67 32.8101 96.01 32.7601C96.35 32.6901 96.59 32.9001 96.66 33.0801C96.74 33.2601 96.7 33.3901 96.73 33.4001C96.75 33.4201 96.87 33.3001 96.83 33.0301C96.81 32.9001 96.73 32.7501 96.59 32.6201C96.44 32.4901 96.21 32.4201 95.97 32.4401C95.47 32.4601 95.01 32.9101 94.77 33.4101C94.5 33.9101 94.33 34.5401 94.34 35.1901C94.35 36.4901 94.98 37.7201 95.91 38.0101C96.36 38.1401 96.74 38.0101 96.94 37.8701C97.16 37.7201 97.2 37.5801 97.17 37.5601Z" fill="#AA6550"/>
<path d="M95.68 30.3901C96.67 30.2101 98.32 31.2101 98.68 32.1501C99.05 33.0901 99.08 34.1401 99.44 35.0801C99.8 36.0201 100.7 36.9101 101.69 36.7301C102.38 36.6101 102.9 36.0001 103.11 35.3401C103.33 34.6801 103.29 33.9601 103.25 33.2701C103.04 30.2501 102.58 27.2401 102.63 24.2101C102.68 21.1801 103.29 18.0701 105.02 15.5801C106.75 13.1001 109.78 11.3701 112.78 11.7801C114.77 12.0501 116.54 13.2001 118.51 13.5901C120.84 14.0501 123.38 13.3701 125.16 11.7801C125.22 11.7301 125.34 11.6401 125.48 11.5501C126.13 11.1301 126.46 10.3201 126.21 9.58008C126.13 9.33008 126.02 9.10008 125.87 8.94008C122.14 5.09008 115.1 3.67008 109.83 4.68008C104.56 5.69008 99.47 9.08008 96.96 13.8301C94.45 18.5701 94.73 25.3901 95.68 30.3901Z" fill="#263238"/>
<path d="M205.89 91.8002C205.89 91.8002 212.94 85.6102 214.27 85.1502C215.61 84.7002 226.21 84.5002 226.93 85.0302C227.65 85.5602 238.39 91.4502 236.61 92.3502C234.83 93.2502 227.38 89.0302 227.38 89.0302L226.13 89.2002C226.13 89.2002 232.63 92.6702 233.79 94.0102C234.86 95.2402 233.84 96.7102 232.62 96.1502C231.41 95.5902 225.83 92.3702 225.39 92.4902C224.95 92.6102 231.33 96.3502 231.92 97.0402C232.71 97.9702 232.2 99.7702 230.98 99.2502C230.26 98.9402 224.37 95.0402 224.37 95.0402C224.37 95.0402 228.81 98.7802 229.13 99.4002C229.65 100.4 228.65 101.31 227.63 100.68C226.93 100.25 223.9 97.2702 222.96 96.7002C222.96 96.7002 221.92 96.6302 220.39 98.2602C218.86 99.8902 212.82 102.13 212.82 102.13L205.89 91.8002Z" fill="#B78876"/>
<path d="M236.58 92.3701C236.58 92.4401 235.7 92.4901 234.3 92.2301C233.61 92.0901 232.79 91.8701 231.91 91.5201C231.07 91.1201 230.16 90.6601 229.21 90.1701C228.51 89.8101 227.83 89.4601 227.19 89.1201L227.32 89.1501C224.16 89.1801 221.87 89.1201 221.87 88.9901C221.87 88.8601 224.15 88.7101 227.32 88.6001H227.38L227.45 88.6301C228.09 88.9501 228.76 89.2901 229.46 89.6401C230.39 90.1201 231.27 90.5801 232.11 91.0101C232.94 91.3801 233.72 91.6301 234.38 91.8101C235.72 92.2001 236.59 92.2901 236.58 92.3701Z" fill="#AA6550"/>
<path d="M208.51 93.5901C208.98 94.4801 210.18 94.7102 211.16 94.5002C212.14 94.2902 213.03 93.7602 213.99 93.4802C216.88 92.6502 220.09 94.1902 222.93 93.2202C223.33 93.0802 223.77 92.7901 223.72 92.3801C223.68 91.9901 223.24 91.8002 222.87 91.6802C219.71 90.6702 216.55 89.6702 213.39 88.6602" fill="#B78876"/>
<path d="M213.4 88.6602C213.41 88.6202 213.79 88.7002 214.46 88.8802C215.13 89.0602 216.09 89.3302 217.28 89.6802C218.51 90.0502 219.91 90.4802 221.44 90.9402C221.83 91.0602 222.23 91.1902 222.64 91.3102C223.01 91.4602 223.56 91.4802 223.92 92.0702C224.08 92.3702 223.98 92.7902 223.77 93.0002C223.57 93.2202 223.33 93.3502 223.09 93.4402C222.62 93.6002 222.15 93.7102 221.66 93.7602C219.69 93.9602 217.91 93.5002 216.31 93.4702C215.51 93.4402 214.75 93.5002 214.08 93.6802C213.41 93.8602 212.79 94.1602 212.2 94.3702C211.02 94.8602 209.86 94.7702 209.23 94.3902C208.58 94.0202 208.48 93.5602 208.51 93.5702C208.56 93.5302 208.72 93.9202 209.33 94.2002C209.94 94.4802 210.94 94.5102 212.05 94.0002C212.61 93.7702 213.22 93.4502 213.95 93.2302C214.68 93.0102 215.49 92.9302 216.32 92.9502C217.99 92.9602 219.78 93.3902 221.59 93.2002C222.04 93.1602 222.48 93.0502 222.88 92.9202C223.27 92.7802 223.53 92.5002 223.41 92.3102C223.31 92.0902 222.87 91.9502 222.46 91.8202C222.05 91.6902 221.66 91.5602 221.26 91.4302C219.74 90.9202 218.36 90.4602 217.13 90.0502C215.96 89.6502 215.01 89.3202 214.36 89.0702C213.74 88.8502 213.39 88.6902 213.4 88.6602Z" fill="#AA6550"/>
<path d="M165.86 143.4L177.55 142.24C177.55 142.24 193.01 152.83 191.53 155.16C190.05 157.49 187.51 155.16 187.51 155.16C187.51 155.16 190.26 158.55 185.82 159.61C185.82 159.61 184.76 161.94 183.07 161.73L182.01 161.74C182.01 161.74 181.05 164.69 179.62 164.06C178.19 163.42 173.88 159.61 173.88 159.61L161.89 158.55L165.86 143.4Z" fill="#B78876"/>
<path d="M173.13 155.45C173.13 155.45 170.14 156.6 169.51 157.8C168.89 159 168.53 161.84 170.46 162.35C171.2 162.55 173.86 162.24 173.86 162.24L173.12 159.09C173.12 159.09 174.24 157.8 174.91 157.24C175.55 156.72 174.85 154.65 173.13 155.45Z" fill="#FFBE9D"/>
<path d="M176.5 157.05C176.5 157.05 173.51 158.2 172.88 159.4C172.26 160.6 172.67 162.62 174.6 163.14C175.34 163.34 177.69 163.03 177.69 163.03L177.38 162.42C176.77 161.24 176.51 160.28 177.58 159.5C177.64 159.46 178.24 158.9 178.28 158.86C178.87 158.3 178.22 156.25 176.5 157.05Z" fill="#FFBE9D"/>
<path d="M177.23 162.92C176.68 162.42 176.63 161.52 176.99 160.86C177.35 160.21 178.03 159.78 178.75 159.58C179.22 159.45 179.8 159.43 180.12 159.8C180.32 160.04 180.35 160.39 180.31 160.7C180.2 161.53 179.66 162.23 179.14 162.89C178.86 163.24 178.52 163.62 178.07 163.61C177.61 163.6 177.29 163.18 177.03 162.8" fill="#FFBE9D"/>
<path d="M114.04 68.6699L116.67 67.6799L118.95 71.7499L117.68 76.0899L115 76.7599L112.32 73.3899L114.04 68.6699Z" fill="#E8505B"/>
<path d="M115 76.7598C115 76.7598 118.4 95.4698 121.24 108.63C121.24 108.63 123.57 119.59 124.51 122.11C125.56 124.93 128.8 129.15 128.8 129.15L132.09 130.42L130.08 111.93L117.68 76.0898L115 76.7598Z" fill="#E8505B"/>
<g opacity="0.4">
<g opacity="0.4">
<path opacity="0.4" d="M114.04 68.6699L116.67 67.6799L118.95 71.7499L117.68 76.0899L115 76.7599L112.32 73.3899L114.04 68.6699Z" fill="black"/>
</g>
</g>
<g opacity="0.4">
<g opacity="0.4">
<path opacity="0.4" d="M115 76.7598C115 76.7598 118.4 95.4698 121.24 108.63C121.24 108.63 123.9 119.48 124.51 122.11C124.86 123.66 128.8 129.15 128.8 129.15L132.09 130.42L130.08 111.93L117.68 76.0898L115 76.7598Z" fill="black"/>
</g>
</g>
<path d="M98.26 57.3L114.04 68.67L110.63 78.0501L96.27 63.2701L98.26 57.3Z" fill="#F5F5F5"/>
<path d="M116.67 67.6801L121.08 57.8401L123.57 65.9501L120.1 74.4801L116.67 67.6801Z" fill="#F5F5F5"/>
<path d="M114.04 68.67C114.07 68.68 114 68.93 113.86 69.39C113.68 69.93 113.47 70.58 113.22 71.35C112.66 73.02 111.83 75.38 110.85 78.13L110.71 78.51L110.44 78.21C109.3 76.95 108.06 75.58 106.76 74.15C103.9 70.98 101.34 68.09 99.5 65.98C98.64 64.98 97.92 64.14 97.34 63.46C96.84 62.86 96.58 62.51 96.6 62.49C96.63 62.47 96.94 62.76 97.49 63.32C98.1 63.97 98.86 64.77 99.77 65.73C101.68 67.78 104.29 70.63 107.14 73.8C108.43 75.24 109.66 76.61 110.79 77.88L110.38 77.96C111.4 75.22 112.28 72.89 112.92 71.24C113.22 70.49 113.48 69.86 113.69 69.33C113.9 68.89 114.01 68.66 114.04 68.67Z" fill="#263238"/>
<path d="M123.57 65.9501C123.64 65.9801 123.35 66.8501 122.83 68.2501C122.31 69.6501 121.57 71.5601 120.71 73.6701C120.58 73.9801 120.46 74.2901 120.34 74.5801L120.08 75.2101L119.86 74.5701C118.52 70.7301 116.58 68.1901 116.71 68.1101C116.76 68.0701 117.3 68.6601 118.03 69.7501C118.76 70.8401 119.65 72.4501 120.35 74.4001L119.87 74.3901C119.99 74.1001 120.11 73.7901 120.24 73.4801C121.09 71.3801 121.9 69.4801 122.5 68.1201C123.1 66.7501 123.5 65.9301 123.57 65.9501Z" fill="#263238"/>
<path d="M324.12 362.06L330.2 386.2L340.52 403.91C341.26 405.19 340.77 406.83 339.45 407.48C338.71 407.85 337.84 407.84 337.11 407.44C332.48 404.94 315.48 395.66 315.13 393.87C314.73 391.79 307.02 368.83 307.02 368.83L324.12 362.06Z" fill="#E8505B"/>
<g opacity="0.6">
<g opacity="0.6">
<path opacity="0.6" d="M339.45 407.49L314.69 392.26L314.97 393.28C315.21 394.16 315.76 394.93 316.51 395.44C318.53 396.81 324.19 400.47 337.04 407.48C337.79 407.88 338.7 407.89 339.45 407.49Z" fill="white"/>
</g>
</g>
<g opacity="0.6">
<g opacity="0.6">
<g opacity="0.6">
<path opacity="0.6" d="M317.47 383.16C318.19 383.41 318.63 384.26 318.41 384.99C318.19 385.72 317.32 386.18 316.6 385.94C315.88 385.7 315.31 384.69 315.61 384C315.91 383.3 316.96 382.82 317.6 383.22" fill="white"/>
</g>
</g>
</g>
<path d="M331.07 398.52C331.22 398.55 331.42 397.14 332.66 396.07C333.87 394.96 335.29 394.93 335.28 394.78C335.28 394.72 334.93 394.61 334.35 394.69C333.77 394.76 332.98 395.07 332.3 395.67C331.63 396.27 331.23 397.02 331.09 397.59C330.94 398.15 331 398.52 331.07 398.52Z" fill="#263238"/>
<path d="M333.67 401.26C333.81 401.33 334.37 400.34 335.51 399.64C336.64 398.92 337.77 398.85 337.77 398.69C337.81 398.55 336.51 398.36 335.22 399.18C333.92 399.98 333.52 401.23 333.67 401.26Z" fill="#263238"/>
<path d="M326.75 395.28C326.89 395.36 327.74 393.83 329.42 392.59C331.08 391.32 332.79 390.94 332.75 390.78C332.75 390.64 330.88 390.8 329.09 392.16C327.29 393.49 326.61 395.24 326.75 395.28Z" fill="#263238"/>
<path d="M324.28 388.1C324.38 388.23 325.56 387.31 327.26 386.77C328.96 386.21 330.45 386.27 330.46 386.1C330.49 385.96 328.92 385.65 327.09 386.25C325.27 386.83 324.18 388 324.28 388.1Z" fill="#263238"/>
<path d="M322.32 381.05C322.43 381.17 323.54 380 325.39 379.58C327.23 379.12 328.75 379.66 328.79 379.5C328.82 379.44 328.47 379.21 327.83 379.04C327.19 378.87 326.25 378.81 325.26 379.05C324.27 379.29 323.46 379.77 322.97 380.21C322.47 380.65 322.27 381.01 322.32 381.05Z" fill="#263238"/>
<path d="M324.97 378.25C325 378.24 324.97 377.9 324.75 377.33C324.54 376.76 324.13 375.95 323.37 375.15C322.99 374.78 322.56 374.28 321.8 374.15C321.42 374.08 320.94 374.28 320.75 374.68C320.55 375.07 320.57 375.49 320.67 375.87C321.12 377.39 322.83 378.5 324.61 378.24C326.38 377.95 327.67 376.54 327.99 375.04C328.05 374.66 328.03 374.21 327.73 373.86C327.43 373.5 326.9 373.47 326.57 373.63C325.89 373.93 325.55 374.47 325.22 374.89C324.58 375.78 324.26 376.62 324.1 377.21C323.94 377.8 323.93 378.14 323.96 378.14C324.06 378.18 324.24 376.79 325.53 375.12C325.86 374.73 326.24 374.24 326.74 374.05C326.98 373.96 327.23 374 327.37 374.17C327.52 374.34 327.55 374.65 327.49 374.96C327.21 376.2 326.03 377.48 324.53 377.7C323.04 377.93 321.53 376.95 321.16 375.73C321.08 375.44 321.07 375.12 321.18 374.9C321.29 374.68 321.51 374.57 321.76 374.6C322.28 374.66 322.73 375.08 323.1 375.43C324.6 376.91 324.87 378.31 324.97 378.25Z" fill="#263238"/>
<path d="M248.71 366.57L250 385.18C250 385.18 231.52 392.74 231.42 396.2L267.59 395L266.77 365.92L248.71 366.57Z" fill="#E8505B"/>
<path d="M261.14 383.24C261.85 383.41 262.36 384.18 262.22 384.89C262.08 385.6 261.3 386.13 260.59 385.97C259.88 385.81 259.24 384.91 259.46 384.21C259.68 383.52 260.63 382.95 261.28 383.27" fill="#E0E0E0"/>
<path d="M267.6 395L267.4 392.07L232.79 394.32C232.79 394.32 231.2 395.07 231.42 396.2L267.6 395Z" fill="#E0E0E0"/>
<path d="M249.41 385.01C249.42 385.19 250.31 385.24 251.2 385.78C252.1 386.3 252.58 387.05 252.74 386.97C252.9 386.93 252.6 385.88 251.52 385.25C250.43 384.61 249.37 384.85 249.41 385.01Z" fill="#263238"/>
<path d="M245.67 386.71C245.64 386.88 246.41 387.16 247.03 387.88C247.68 388.59 247.85 389.39 248.03 389.38C248.2 389.4 248.28 388.36 247.49 387.47C246.71 386.58 245.67 386.54 245.67 386.71Z" fill="#263238"/>
<path d="M243.67 391.32C243.83 391.35 244.05 390.46 243.56 389.51C243.08 388.55 242.24 388.2 242.17 388.35C242.07 388.5 242.63 389 243.02 389.79C243.41 390.57 243.49 391.31 243.67 391.32Z" fill="#263238"/>
<path d="M249.59 380.74C249.67 380.9 250.47 380.63 251.47 380.66C252.47 380.67 253.26 380.98 253.35 380.83C253.45 380.7 252.67 380.07 251.49 380.05C250.31 380.02 249.5 380.61 249.59 380.74Z" fill="#263238"/>
<path d="M249.4 376.98C249.4 377.05 250.1 377.14 251.21 376.91C251.76 376.8 252.41 376.59 253.09 376.26C253.43 376.1 253.77 375.9 254.11 375.67C254.27 375.56 254.47 375.44 254.64 375.23C254.83 375.04 254.93 374.57 254.69 374.29C254.5 374.02 254.16 373.91 253.9 373.91C253.63 373.91 253.42 373.97 253.22 374.03C252.82 374.14 252.45 374.29 252.11 374.45C251.43 374.79 250.88 375.2 250.48 375.6C249.67 376.4 249.4 377.07 249.46 377.11C249.54 377.17 249.93 376.6 250.76 375.93C251.18 375.6 251.71 375.25 252.35 374.97C252.67 374.83 253.01 374.71 253.38 374.61C253.76 374.5 254.09 374.48 254.19 374.65C254.23 374.71 254.23 374.74 254.16 374.85C254.08 374.96 253.93 375.06 253.77 375.17C253.46 375.39 253.14 375.58 252.83 375.75C252.21 376.08 251.61 376.32 251.1 376.48C250.07 376.82 249.39 376.89 249.4 376.98Z" fill="#263238"/>
<path d="M249.63 377.23C249.69 377.26 250.02 376.61 250.05 375.46C250.06 374.89 249.98 374.21 249.74 373.48C249.62 373.12 249.45 372.75 249.24 372.4C249.02 372.05 248.74 371.58 248.05 371.52C247.69 371.52 247.4 371.81 247.31 372.05C247.2 372.3 247.18 372.51 247.15 372.72C247.1 373.14 247.12 373.56 247.19 373.94C247.33 374.71 247.67 375.34 248.03 375.79C248.77 376.7 249.51 376.89 249.52 376.83C249.58 376.74 248.95 376.42 248.38 375.54C248.1 375.1 247.84 374.53 247.75 373.86C247.7 373.53 247.7 373.17 247.75 372.81C247.79 372.42 247.93 372.11 248.07 372.14C248.25 372.13 248.57 372.41 248.72 372.71C248.92 373.03 249.08 373.36 249.2 373.68C249.45 374.33 249.57 374.95 249.61 375.48C249.7 376.54 249.54 377.2 249.63 377.23Z" fill="#263238"/>
<path d="M238.84 164.14L244.66 380.7L273.2 379.84L271 193.98L307.36 385.01L333.13 378.28L299.86 164.55L238.84 164.14Z" fill="#263238"/>
<path d="M254.48 380.98C254.34 380.98 254.22 336.09 254.22 280.73C254.22 225.35 254.34 180.47 254.48 180.47C254.62 180.47 254.74 225.35 254.74 280.73C254.74 336.09 254.62 380.98 254.48 380.98Z" fill="#455A64"/>
<path d="M315.51 384.94C315.37 384.96 308.7 341.92 300.62 288.82C292.54 235.7 286.1 192.64 286.25 192.61C286.39 192.59 293.06 235.62 301.14 288.74C309.21 341.85 315.65 384.92 315.51 384.94Z" fill="#455A64"/>
<path d="M279.73 28.72C280.58 26.41 281.68 24.24 282.14 21.83C282.48 20.03 283.02 17.33 282.3 15.65C281.58 13.97 279.83 12.36 277.63 12.81C277.08 9.24996 275.19 6.36996 271.59 4.61996C268.35 3.04996 265.17 2.27996 261.58 2.01996C260.5 1.93996 258.81 2.00996 257.83 2.48996C256.85 2.96996 255.95 3.93996 255.58 4.91996C253.69 3.42996 250.98 2.98996 248.23 3.73996C245.48 4.48996 242.34 5.96996 241.13 8.55996C240.38 10.16 240.11 12.14 240.91 14.66C241.45 16.34 243.22 18.98 244.88 18.37" fill="#263238"/>
<path d="M265.82 75.4301C258.86 75.2901 253.39 69.4201 253.74 62.4601C253.91 59.0001 254.07 56.2201 254.07 56.2201C254.07 56.2201 244.65 55.0001 244.3 45.6201C243.95 36.2501 245.03 14.6701 245.03 14.6701C255.77 9.73007 268.34 10.9901 277.88 17.9601L279.3 19.0001L278.42 63.3201C278.29 70.1501 272.65 75.5701 265.82 75.4301Z" fill="#FFBE9D"/>
<path d="M254.05 56.0801C254.05 56.0801 259.99 56.41 266.19 52.3C266.19 52.3 263.3 59.5801 253.92 58.9701L254.05 56.0801Z" fill="#EB996E"/>
<path d="M278.39 28.74C278.55 28.67 284.79 26.67 284.74 33.09C284.7 39.51 278.26 38.14 278.25 37.95C278.25 37.77 278.39 28.74 278.39 28.74Z" fill="#FFBE9D"/>
<path d="M280.24 35.5401C280.27 35.5201 280.35 35.6201 280.54 35.7101C280.72 35.8001 281.04 35.8601 281.38 35.7301C282.06 35.4901 282.64 34.4101 282.68 33.2601C282.7 32.6801 282.58 32.1201 282.38 31.6601C282.19 31.1901 281.89 30.8601 281.55 30.8001C281.21 30.7201 280.97 30.9201 280.89 31.1001C280.8 31.2801 280.84 31.4101 280.81 31.4201C280.79 31.4401 280.67 31.3101 280.73 31.0501C280.76 30.9201 280.83 30.7701 280.99 30.6501C281.14 30.5301 281.37 30.4601 281.61 30.4901C282.1 30.5301 282.55 30.9901 282.77 31.4901C283.02 32.0001 283.17 32.6301 283.15 33.2801C283.1 34.5701 282.43 35.7801 281.5 36.0401C281.05 36.1501 280.67 36.0201 280.48 35.8601C280.25 35.7001 280.21 35.5501 280.24 35.5401Z" fill="#EB996E"/>
<path d="M279.8 19.74C279.74 22.47 280.43 25.5 280.02 28.2C279.96 28.61 278.93 29.72 278.85 30.12C278.36 32.51 277.4 33.55 275.93 31.14C275.36 30.21 274.95 27.6 274.71 26.54C274.07 23.67 273.43 20.8 272.79 17.92C270.58 19.02 268.17 19.88 265.7 19.79C263.23 19.7 260.7 18.52 259.52 16.35C258.4 18.32 256.35 19.74 254.12 20.09C251.88 20.44 249.5 19.72 247.83 18.19C247.03 19.55 245.04 19.97 243.68 19.19C242.31 18.4 241.66 16.62 242.05 15.09C242.64 12.79 245.06 11.48 247.32 10.75C256.17 7.90002 266.09 9.71002 274.22 14.21C275.41 14.87 276.58 15.59 277.52 16.57C278.46 17.55 279.76 18.69 279.83 20.05" fill="#263238"/>
<path d="M273.06 18.99C273.08 19.08 273.67 18.87 274.52 19.22C274.94 19.39 275.4 19.68 275.86 20.08C276.32 20.48 276.77 21 277.32 21.51C277.86 22.02 278.48 22.46 279.14 22.66C279.8 22.86 280.43 22.82 280.92 22.68C281.91 22.4 282.31 21.86 282.26 21.82C282.21 21.75 281.74 22.15 280.84 22.3C280.4 22.37 279.85 22.37 279.3 22.17C278.75 21.98 278.21 21.59 277.7 21.1C277.18 20.61 276.71 20.1 276.19 19.68C275.68 19.27 275.14 18.98 274.65 18.84C273.63 18.56 273.01 18.95 273.06 18.99Z" fill="#455A64"/>
<path d="M274.15 21.7899C274.16 21.8699 274.63 21.7999 275.17 22.2399C275.43 22.4499 275.69 22.7799 275.99 23.1699C276.28 23.5599 276.7 23.9999 277.21 24.2999C278.24 24.9399 279.38 25.0399 280.13 24.9199C280.9 24.7999 281.3 24.5199 281.27 24.4599C281.24 24.3799 280.8 24.5199 280.09 24.5299C279.39 24.5399 278.39 24.3999 277.49 23.8299C276.57 23.3099 276.12 22.3399 275.38 21.9199C274.67 21.4899 274.11 21.7299 274.15 21.7899Z" fill="#455A64"/>
<path d="M249.42 3.56003C249.42 3.53003 249.12 3.48003 248.6 3.64003C248.09 3.79003 247.37 4.20003 246.79 5.00003C245.64 6.61003 245.38 9.47003 246.27 12.23C247.17 15.04 249.22 16.98 250.86 17.88C251.68 18.35 252.41 18.61 252.91 18.76C253.42 18.9 253.71 18.93 253.72 18.9C253.75 18.8 252.61 18.55 251.06 17.56C249.53 16.6 247.64 14.73 246.79 12.07C245.94 9.45003 246.15 6.73003 247.11 5.23003C247.59 4.48003 248.22 4.06003 248.67 3.85003C249.13 3.63003 249.42 3.60003 249.42 3.56003Z" fill="#455A64"/>
<path d="M241.65 7.44995C241.59 7.44995 241.53 8.14995 241.73 9.25995C241.93 10.3599 242.44 11.8699 243.39 13.2999C244.35 14.7399 245.54 15.7899 246.48 16.3999C247.42 17.0099 248.09 17.2299 248.12 17.1699C248.22 17.0199 245.68 15.7899 243.85 12.9999C241.98 10.2299 241.83 7.41995 241.65 7.44995Z" fill="#455A64"/>
<path d="M189.94 138.14L176.22 138.83C174.47 138.92 173.1 140.38 173.14 142.13C173.2 145.26 173.73 149.56 176.18 149.15L177.74 142.32L189.13 152.37C190.28 153.41 191.7 154.11 193.23 154.38L195.91 154.1L189.94 138.14Z" fill="#FFBE9D"/>
<path d="M255.55 64.6501L248.38 67.0101L244.82 126.57V179.39L288.85 184.27L289.36 108.09L286.52 70.1701L279.79 62.1401L255.55 64.6501Z" fill="#E0E0E0"/>
<path d="M253.35 67.5001V61.7201L279.51 58.0801L278.46 71.3801L272.45 81.8001L262.62 82.3501L255.52 77.9601L253.35 67.5001Z" fill="#E0E0E0"/>
<path d="M255.69 66.8201C255.55 66.8101 255.48 65.6301 255.54 64.1801C255.6 62.7301 255.77 61.5601 255.91 61.5601C256.05 61.5701 256.12 62.7501 256.06 64.2001C256 65.6601 255.83 66.8301 255.69 66.8201Z" fill="#263238"/>
<path d="M262.23 66.35C262.09 66.34 262.05 65.02 262.14 63.4C262.23 61.78 262.43 60.47 262.57 60.48C262.71 60.49 262.75 61.81 262.66 63.43C262.57 65.05 262.38 66.35 262.23 66.35Z" fill="#263238"/>
<path d="M268.56 65.68C268.42 65.67 268.4 64.27 268.53 62.56C268.66 60.85 268.87 59.47 269.02 59.48C269.16 59.49 269.18 60.89 269.05 62.6C268.92 64.32 268.71 65.69 268.56 65.68Z" fill="#263238"/>
<path d="M274.64 64.6901C274.5 64.7001 274.33 63.3701 274.41 61.7401C274.48 60.1001 274.77 58.8001 274.91 58.8201C275.06 58.8401 275 60.1501 274.93 61.7601C274.85 63.3701 274.78 64.6801 274.64 64.6901Z" fill="#263238"/>
<path d="M271.73 89.8601C271.76 89.8701 271.64 90.2201 271.38 90.8401C271.13 91.4601 270.73 92.3401 270.22 93.4101C269.2 95.5601 267.69 98.4901 265.83 101.62C263.97 104.75 262.12 107.48 260.72 109.4C260.02 110.36 259.43 111.13 259.01 111.64C258.59 112.16 258.35 112.43 258.32 112.41C258.26 112.36 259.1 111.15 260.42 109.18C261.74 107.21 263.54 104.46 265.39 101.35C267.24 98.2401 268.8 95.3501 269.9 93.2401C271 91.1401 271.66 89.8301 271.73 89.8601Z" fill="#263238"/>
<path d="M279.66 61.21L286.76 64.63L300.48 67.98C306.5 69.03 310.64 74.63 309.86 80.69L302.68 136.7L311.25 191L277.25 189.99L275.26 169.79V113.79L279.66 61.21Z" fill="#455A64"/>
<path d="M275.25 126.7C275.23 126.7 275.27 126.46 275.35 126.01C275.45 125.51 275.58 124.85 275.74 124.04C276.11 122.28 276.62 119.82 277.25 116.82C278.59 110.68 280.42 102.3 282.44 93.0499C283.01 90.4999 283.56 88.0199 284.09 85.6299L284.15 85.8599C283.35 85.0199 282.56 84.1999 281.79 83.3999L281.66 83.2599L281.76 83.0999C283.17 80.7599 284.49 78.5499 285.72 76.5199L285.71 76.7199C283.92 72.3799 282.43 68.7599 281.35 66.1599C280.86 64.9299 280.46 63.9399 280.17 63.1999C279.9 62.5199 279.77 62.1499 279.79 62.1399C279.81 62.1299 279.98 62.4799 280.29 63.1499C280.61 63.8699 281.04 64.8499 281.58 66.0599C282.69 68.6399 284.24 72.2299 286.11 76.5499L286.15 76.6499L286.09 76.7499C284.88 78.7899 283.58 80.9999 282.18 83.3599L282.15 83.0599C282.92 83.8599 283.71 84.6799 284.52 85.5099L284.61 85.6099L284.58 85.7399C284.05 88.1199 283.51 90.6099 282.94 93.1599C280.86 102.4 278.98 110.77 277.6 116.9C276.9 119.89 276.33 122.33 275.92 124.08C275.72 124.88 275.56 125.53 275.44 126.03C275.34 126.48 275.27 126.71 275.25 126.7Z" fill="#263238"/>
<path d="M190.52 135.88L220.6 119.11L235.18 79.8C237.22 74.31 241.44 69.91 246.85 67.66L250.72 66.05L250.74 169.55L251.52 194.07L235.22 189.19L243.53 139.91L240.66 115.66L237.8 127.39C236.78 131.59 234.1 135.19 230.37 137.37L199.06 153.63L190.52 135.88Z" fill="#455A64"/>
<path d="M190.88 136.64L188.35 137.39L195.47 154.37L198.79 153.09L190.88 136.64Z" fill="#E0E0E0"/>
<path d="M226.04 126.09C225.89 126.14 225.37 124.16 223.79 122.28C222.24 120.38 220.39 119.51 220.46 119.37C220.48 119.24 222.54 119.94 224.19 121.95C225.86 123.93 226.17 126.09 226.04 126.09Z" fill="#263238"/>
<path d="M194.13 136.1C194.16 136.17 193.98 136.3 193.96 136.59C193.93 136.89 194.14 137.22 194.53 137.1C194.93 136.99 194.92 136.6 194.74 136.37C194.57 136.14 194.34 136.12 194.33 136.04C194.3 135.98 194.61 135.82 194.99 136.1C195.16 136.24 195.35 136.48 195.33 136.83C195.32 137.18 195.02 137.51 194.67 137.6C194.33 137.71 193.9 137.6 193.7 137.3C193.5 137.02 193.52 136.71 193.59 136.5C193.77 136.06 194.12 136.03 194.13 136.1Z" fill="#263238"/>
<path d="M196.55 135.07C196.58 135.14 196.4 135.27 196.38 135.56C196.35 135.86 196.56 136.19 196.95 136.07C197.35 135.96 197.34 135.57 197.16 135.34C196.99 135.11 196.76 135.09 196.75 135.01C196.72 134.95 197.03 134.79 197.41 135.07C197.58 135.21 197.77 135.45 197.75 135.8C197.74 136.15 197.44 136.48 197.09 136.57C196.75 136.68 196.32 136.57 196.12 136.27C195.92 135.99 195.94 135.68 196.02 135.47C196.2 135.04 196.55 135.01 196.55 135.07Z" fill="#263238"/>
<path d="M250.71 128.3C250.69 128.3 250.65 128.08 250.58 127.66C250.51 127.18 250.42 126.57 250.3 125.82C250.07 124.15 249.76 121.85 249.38 119.03C248.64 113.23 247.64 105.33 246.53 96.59C246.38 95.35 246.23 94.13 246.08 92.92L246.07 92.85L246.09 92.79C246.85 90.86 247.58 88.99 248.29 87.2V87.39C247.53 85.65 246.8 84 246.12 82.43L246.09 82.35L246.11 82.27C247.44 77.45 248.56 73.4 249.37 70.49C249.77 69.11 250.09 68.01 250.32 67.18C250.55 66.42 250.68 66.01 250.71 66.02C250.73 66.03 250.65 66.44 250.46 67.22C250.25 68.05 249.98 69.17 249.63 70.56C248.87 73.49 247.81 77.55 246.55 82.39L246.54 82.24C247.23 83.8 247.97 85.45 248.74 87.18L248.78 87.27L248.74 87.37C248.04 89.16 247.31 91.03 246.56 92.96L246.58 92.83C246.73 94.03 246.88 95.26 247.03 96.5C248.08 105.24 249.03 113.15 249.73 118.96C250.04 121.79 250.3 124.1 250.49 125.77C250.56 126.53 250.62 127.15 250.67 127.63C250.72 128.07 250.73 128.3 250.71 128.3Z" fill="#263238"/>
<path d="M243.47 140.19C243.45 140.19 243.42 140.02 243.37 139.7C243.32 139.32 243.25 138.85 243.17 138.29C243.01 136.98 242.79 135.22 242.53 133.08C242 128.68 241.25 122.61 240.35 115.91C239.45 109.21 238.57 103.15 237.92 98.7699C237.61 96.6399 237.35 94.8799 237.16 93.5799C237.09 93.0199 237.03 92.5499 236.98 92.1599C236.94 91.8399 236.93 91.6599 236.95 91.6599C236.97 91.6599 237.01 91.8199 237.08 92.1399C237.16 92.5199 237.25 92.9799 237.36 93.5399C237.59 94.7599 237.91 96.5199 238.28 98.7099C239.02 103.08 239.96 109.13 240.86 115.84C241.76 122.54 242.45 128.63 242.89 133.04C243.11 135.25 243.27 137.03 243.37 138.27C243.41 138.84 243.44 139.31 243.47 139.69C243.49 140.01 243.49 140.18 243.47 140.19Z" fill="#263238"/>
<path d="M239.32 176.98C239.37 176.96 239.49 177.36 240.02 177.82C240.53 178.26 241.56 178.72 242.76 178.43C243.96 178.15 245.13 177.03 245.74 175.5C246.37 173.96 246.44 172.07 246.58 170.12C246.7 168.18 246.66 166.29 246.02 164.76C245.41 163.22 244.22 162.19 243.29 161.32C242.34 160.45 241.6 159.67 241.21 159.05C240.81 158.43 240.69 158.04 240.72 158.03C240.76 158.01 240.94 158.37 241.38 158.93C241.81 159.5 242.56 160.21 243.54 161.04C244.49 161.88 245.77 162.91 246.46 164.57C247.16 166.21 247.22 168.18 247.09 170.15C246.95 172.1 246.87 174.04 246.17 175.68C245.5 177.31 244.19 178.52 242.83 178.78C241.46 179.05 240.38 178.48 239.87 177.96C239.6 177.69 239.46 177.43 239.38 177.26C239.32 177.08 239.3 176.98 239.32 176.98Z" fill="#263238"/>
<path d="M228.14 138.14C228.14 138.14 229.11 126.67 238.22 125.61C238.22 125.61 238.39 134.95 228.14 138.14Z" fill="#263238"/>
<path d="M276.82 181.08C277.42 181.48 303.27 198.38 303.27 198.38L306.25 195.99L307.66 157.22L282.47 138.13L279 139.32L276.82 181.08Z" fill="#E8505B"/>
<path d="M282.2 138.68L283.23 180.65H277.67L279.53 139.52L282.2 138.68Z" fill="#E0E0E0"/>
<path d="M290.52 190.28C290.52 190.28 291.11 192.14 293.5 192.31C293.57 192.32 293.65 192.37 293.72 192.49C294.26 193.41 295.17 194.06 296.23 194.06C297.05 194.06 298.04 193.87 299.07 193.24C300.45 192.4 302.91 186.88 302.91 186.88L308.74 173.89L298.93 171.24L286.47 175.12C286.47 175.35 283.55 187.14 283.55 187.14C283.55 187.14 285.91 187.8 287.05 185.28C288.19 182.76 289.25 181.16 289.25 181.16L290.18 186.47L286.64 187.68C286.64 187.68 286.21 189.64 288.16 190.37L290.52 190.28Z" fill="#FFBE9D"/>
<path d="M294.92 99.0601L311.25 129.12L297.96 168.57L312.74 176.89L331.52 133.01C332.91 129.76 332.85 126.06 331.36 122.85L308.32 73.3601L294.92 99.0601Z" fill="#455A64"/>
<path d="M297.96 168.57L296.58 171.63L310.52 179.14L311.98 176.47L297.96 168.57Z" fill="#E0E0E0"/>
<path d="M297.96 168.57C297.95 168.57 297.97 168.5 298 168.37C298.05 168.21 298.1 168.02 298.17 167.79C298.34 167.25 298.58 166.5 298.88 165.56C299.53 163.58 300.45 160.77 301.59 157.27C303.95 150.19 307.24 140.33 311 129.04L311.02 129.25C309.12 126.02 307.17 122.61 305.19 119.09C301.59 112.66 298.28 106.46 295.46 100.74C294.06 97.87 292.76 95.12 291.66 92.5C290.46 89.88 290.16 87.13 290.3 84.71C290.46 82.28 290.94 80.1 291.76 78.34C292.57 76.57 293.64 75.25 294.64 74.34C295.65 73.43 296.59 72.91 297.24 72.62C297.89 72.33 298.26 72.26 298.26 72.26C298.31 72.34 296.75 72.66 294.77 74.49C293.81 75.41 292.78 76.73 292.01 78.47C291.24 80.2 290.78 82.36 290.65 84.74C290.54 87.12 290.85 89.79 292.04 92.34C293.15 94.94 294.47 97.67 295.87 100.54C298.72 106.25 302.03 112.43 305.63 118.85C307.6 122.37 309.55 125.78 311.44 129.01L311.5 129.11L311.46 129.22C307.63 140.48 304.28 150.32 301.88 157.39C300.67 160.87 299.71 163.67 299.02 165.63C298.69 166.56 298.42 167.3 298.23 167.84C298.14 168.07 298.07 168.25 298.02 168.41C297.99 168.51 297.96 168.57 297.96 168.57Z" fill="#263238"/>
<path d="M322.29 128.84C322.25 128.91 321.67 128.6 320.68 128.27C319.7 127.94 318.28 127.64 316.69 127.69C315.11 127.74 313.71 128.13 312.75 128.52C311.78 128.91 311.23 129.26 311.18 129.19C311.15 129.14 311.64 128.68 312.6 128.19C313.56 127.69 315.02 127.23 316.68 127.17C318.34 127.12 319.83 127.5 320.81 127.93C321.8 128.36 322.32 128.79 322.29 128.84Z" fill="#263238"/>
<path d="M291.65 91.9099L303.38 131.17L305.04 118.26L291.65 91.9099Z" fill="#263238"/>
<path d="M311.03 169.05C311.06 169.12 310.88 169.25 310.86 169.54C310.83 169.84 311.04 170.17 311.43 170.05C311.83 169.94 311.82 169.55 311.64 169.32C311.47 169.09 311.24 169.07 311.23 168.99C311.2 168.93 311.51 168.77 311.89 169.05C312.06 169.19 312.25 169.43 312.23 169.78C312.22 170.13 311.92 170.46 311.57 170.55C311.23 170.66 310.8 170.55 310.6 170.25C310.4 169.97 310.42 169.66 310.49 169.45C310.68 169.01 311.03 168.98 311.03 169.05Z" fill="#263238"/>
<path d="M312.21 166.22C312.24 166.29 312.06 166.42 312.04 166.71C312.01 167.01 312.22 167.34 312.61 167.22C313.01 167.11 313 166.72 312.82 166.49C312.65 166.26 312.42 166.24 312.41 166.16C312.38 166.1 312.69 165.94 313.07 166.22C313.24 166.36 313.43 166.6 313.41 166.95C313.4 167.3 313.1 167.63 312.75 167.72C312.41 167.83 311.98 167.72 311.78 167.42C311.58 167.14 311.6 166.83 311.67 166.62C311.86 166.18 312.21 166.15 312.21 166.22Z" fill="#263238"/>
<path d="M328.26 116.21C326.51 117.13 325.9 119.71 326.1 121.68C326.3 123.65 327.02 125.56 326.97 127.54C326.93 128.95 326.5 130.32 326.22 131.7C325.94 133.08 325.81 134.57 326.35 135.87C326.89 137.18 328.27 138.22 329.66 137.96L331.05 135.16C333.25 130.71 333.18 125.48 330.85 121.1L328.26 116.21Z" fill="#263238"/>
</g>
<defs>
<clipPath id="clip0_586_2861">
<rect width="270.87" height="406.7" fill="white" transform="translate(70 2)"/>
</clipPath>
</defs>
</svg>
