<svg width="303" height="280" viewBox="0 0 303 280" fill="none" xmlns="http://www.w3.org/2000/svg">
<path fill-rule="evenodd" clip-rule="evenodd" d="M146.224 4.00002C182.888 3.40028 213.361 7.51895 240.451 32.9622C269.274 60.0337 299.793 89.7956 302.146 129.08C304.596 170.002 281.948 207.485 252.563 235.217C223.86 262.306 185.938 277.635 146.224 276.233C107.119 274.852 70.4826 256.57 43.1946 227.825C16.2798 199.473 -2.05223 161.927 1.00679 123.263C3.88937 86.8286 32.4343 61.0771 58.376 35.9405C83.9554 11.155 110.404 4.58593 146.224 4.00002Z" fill="#858D94"/>
<g clip-path="url(#clip0_586_2865)">
<path d="M264.076 54.6799H36.8324C32.9152 54.6799 29.7417 57.9203 29.7417 61.92V225.805C29.7417 229.805 32.9152 233.05 36.8324 233.05H124.047C124.047 233.05 129.593 250.568 112.395 259.631H193.944C193.944 259.631 174.525 252.835 179.521 233.05H264.076C267.993 233.05 271.167 229.81 271.167 225.81V61.9253C271.172 57.9203 267.993 54.6799 264.076 54.6799Z" fill="#455A64"/>
<path d="M153.489 215.816C156.579 220.329 151.74 225.265 147.325 222.11C147.179 222.003 147.048 221.869 146.943 221.72C143.859 217.212 148.692 212.277 153.107 215.426C153.254 215.533 153.39 215.667 153.489 215.816Z" fill="#263238"/>
<path d="M267.26 203.069H33.6538V62.8664C33.6538 60.0004 35.9266 57.6797 38.7336 57.6797H262.18C264.987 57.6797 267.26 60.0004 267.26 62.8664V203.069Z" fill="white"/>
<path d="M267.26 69.7643H33.6538V62.5777C33.6538 59.872 35.8009 57.6851 38.4455 57.6851H263.322C265.495 57.6851 267.26 59.4817 267.26 61.7061V69.7643Z" fill="#EBEBEB"/>
<path d="M41.0952 65.6523C42.0005 65.6523 42.7343 64.9029 42.7343 63.9786C42.7343 63.0543 42.0005 62.3049 41.0952 62.3049C40.1899 62.3049 39.4561 63.0543 39.4561 63.9786C39.4561 64.9029 40.1899 65.6523 41.0952 65.6523Z" fill="#E0E0E0"/>
<path d="M45.9863 65.6523C46.8916 65.6523 47.6254 64.9029 47.6254 63.9786C47.6254 63.0543 46.8916 62.3049 45.9863 62.3049C45.081 62.3049 44.3472 63.0543 44.3472 63.9786C44.3472 64.9029 45.081 65.6523 45.9863 65.6523Z" fill="#E0E0E0"/>
<path d="M50.6367 65.6523C51.542 65.6523 52.2758 64.9029 52.2758 63.9786C52.2758 63.0543 51.542 62.3049 50.6367 62.3049C49.7314 62.3049 48.9976 63.0543 48.9976 63.9786C48.9976 64.9029 49.7314 65.6523 50.6367 65.6523Z" fill="#E0E0E0"/>
<path d="M223.448 233.077C223.448 233.152 191.111 233.216 151.232 233.216C111.337 233.216 79.0103 233.152 79.0103 233.077C79.0103 233.002 111.343 232.938 151.232 232.938C191.116 232.938 223.448 232.997 223.448 233.077Z" fill="#263238"/>
<path d="M186.539 90.2225L150.918 76.8279L115.648 90.046C111.144 92.2758 107.195 93.6073 107.195 98.0026V119.878C107.195 135.069 110.997 150.121 118.816 163.409C125.393 174.59 135.584 186.108 151.269 193.428C165.686 188.525 176.448 175.445 183.03 164.265C190.849 150.977 194.651 135.919 194.651 120.733V101.05C194.646 94.789 191.472 91.7304 186.539 90.2225Z" fill="#E8505B"/>
<g opacity="0.8">
<g opacity="0.8">
<g opacity="0.8">
<path opacity="0.8" d="M186.539 90.2225L150.918 76.8279L115.648 90.046C111.144 92.2758 107.195 93.6073 107.195 98.0026V119.878C107.195 135.069 110.997 150.121 118.816 163.409C125.393 174.59 135.584 186.108 151.269 193.428C165.686 188.525 176.448 175.445 183.03 164.265C190.849 150.977 194.651 135.919 194.651 120.733V101.05C194.646 94.789 191.472 91.7304 186.539 90.2225Z" fill="white"/>
</g>
</g>
</g>
<path d="M172.671 145.598H166.125V109.221C166.125 100.66 159.302 93.6928 150.918 93.6928C142.533 93.6928 135.71 100.66 135.71 109.221V145.592H129.164V109.221C129.164 96.9759 138.92 87.0142 150.912 87.0142C162.905 87.0142 172.661 96.9759 172.661 109.221V145.598H172.671Z" fill="#E8505B"/>
<g opacity="0.4">
<g opacity="0.4">
<path opacity="0.4" d="M172.671 145.598H166.125V109.221C166.125 100.66 159.302 93.6928 150.918 93.6928C142.533 93.6928 135.71 100.66 135.71 109.221V145.592H129.164V109.221C129.164 96.9759 138.92 87.0142 150.912 87.0142C162.905 87.0142 172.661 96.9759 172.661 109.221V145.598H172.671Z" fill="black"/>
</g>
</g>
<path d="M177.186 167.82H124.65C122.969 167.82 121.607 166.43 121.607 164.714V132.524C121.607 130.807 122.969 129.417 124.65 129.417H177.191C178.872 129.417 180.234 130.807 180.234 132.524V164.714C180.234 166.43 178.867 167.82 177.186 167.82Z" fill="#E8505B"/>
<g opacity="0.5">
<path opacity="0.5" d="M155.82 143.614C155.82 140.849 153.625 138.609 150.918 138.609C148.21 138.609 146.016 140.849 146.016 143.614C146.016 145.902 147.53 147.806 149.577 148.405V155.886H152.253V148.405C154.306 147.811 155.82 145.902 155.82 143.614Z" fill="black"/>
</g>
<path d="M124.734 164.179C124.597 164.179 124.493 157.773 124.493 149.875C124.493 141.972 124.603 135.572 124.734 135.572C124.87 135.572 124.974 141.977 124.974 149.875C124.974 157.773 124.864 164.179 124.734 164.179Z" fill="#FAFAFA"/>
<path d="M147.079 150.03C147.063 150.057 146.849 149.95 146.503 149.699C146.157 149.448 145.697 149.014 145.241 148.383C144.325 147.159 143.492 144.935 144.037 142.534C144.607 140.138 146.33 138.534 147.681 137.86C148.367 137.507 148.97 137.331 149.389 137.261C149.808 137.192 150.043 137.197 150.048 137.229C150.069 137.326 149.122 137.416 147.849 138.17C146.597 138.892 145.037 140.438 144.508 142.651C144.005 144.865 144.723 146.966 145.524 148.186C146.33 149.437 147.142 149.956 147.079 150.03Z" fill="#FAFAFA"/>
<path d="M194.955 184.937C194.955 184.937 195.096 184.733 195.379 184.354C195.452 184.258 195.531 184.151 195.62 184.033C195.698 183.91 195.772 183.766 195.861 183.611C196.033 183.3 196.248 182.953 196.4 182.509C196.484 182.29 196.583 182.065 196.667 181.819C196.735 181.568 196.809 181.306 196.882 181.028C196.971 180.755 197.013 180.456 197.06 180.146C197.102 179.835 197.18 179.515 197.191 179.172C197.332 177.814 197.248 176.231 196.981 174.483C196.452 170.975 194.991 166.842 192.76 162.35C190.535 157.848 187.466 153.009 183.701 147.966C179.93 142.919 175.4 137.705 170.19 132.47C164.974 127.241 159.072 121.99 152.452 117.012C149.143 114.525 145.65 112.119 141.968 109.847C138.292 107.574 134.411 105.451 130.321 103.612C126.231 101.794 121.916 100.216 117.365 99.4624C115.098 99.1041 112.757 98.933 110.458 99.2913C109.311 99.4731 108.18 99.7885 107.122 100.28C106.075 100.799 105.116 101.494 104.32 102.371C103.556 103.275 102.99 104.328 102.597 105.451C102.246 106.585 102.058 107.767 102.016 108.948C101.927 111.322 102.362 113.68 102.969 115.942C104.215 120.477 106.247 124.674 108.478 128.62C110.735 132.561 113.239 136.256 115.873 139.726C118.502 143.202 121.246 146.475 124.037 149.549C129.635 155.698 135.417 161.088 141.099 165.783C146.786 170.473 152.374 174.478 157.715 177.723C163.052 180.969 168.11 183.53 172.745 185.279C177.369 187.033 181.554 188.038 185.026 188.177C186.759 188.247 188.309 188.156 189.613 187.856C189.943 187.808 190.247 187.685 190.545 187.61C190.844 187.53 191.127 187.45 191.383 187.327C191.645 187.22 191.891 187.118 192.132 187.022C192.362 186.91 192.567 186.781 192.771 186.669C193.185 186.466 193.499 186.209 193.776 186.001C193.913 185.894 194.049 185.803 194.159 185.707C194.263 185.605 194.358 185.509 194.441 185.429C194.771 185.102 194.955 184.937 194.955 184.937C194.955 184.937 194.787 185.113 194.457 185.455C194.373 185.541 194.279 185.637 194.174 185.739C194.064 185.835 193.934 185.931 193.792 186.038C193.515 186.252 193.2 186.514 192.787 186.723C192.588 186.835 192.378 186.963 192.148 187.081C191.912 187.182 191.661 187.284 191.399 187.396C191.142 187.519 190.854 187.6 190.556 187.685C190.257 187.765 189.953 187.888 189.618 187.936C188.309 188.247 186.749 188.348 185.01 188.284C181.522 188.161 177.317 187.166 172.677 185.423C168.027 183.685 162.957 181.135 157.605 177.894C152.248 174.649 146.65 170.649 140.947 165.965C135.254 161.27 129.457 155.88 123.843 149.726C121.042 146.646 118.292 143.373 115.658 139.892C113.019 136.417 110.505 132.711 108.243 128.759C106.001 124.803 103.959 120.589 102.702 116.017C102.095 113.739 101.649 111.36 101.738 108.943C101.78 107.734 101.974 106.531 102.335 105.366C102.733 104.216 103.325 103.125 104.111 102.189C104.933 101.28 105.928 100.564 107.001 100.029C108.091 99.5265 109.248 99.2004 110.416 99.0186C112.757 98.6549 115.124 98.8314 117.407 99.195C121.995 99.9543 126.326 101.542 130.431 103.366C134.532 105.211 138.417 107.339 142.104 109.622C145.791 111.9 149.289 114.317 152.604 116.809C159.229 121.797 165.136 127.064 170.352 132.31C175.563 137.561 180.092 142.785 183.858 147.849C187.623 152.907 190.681 157.768 192.902 162.286C195.122 166.794 196.573 170.943 197.091 174.472C197.348 176.231 197.432 177.825 197.28 179.188C197.269 179.531 197.18 179.851 197.138 180.167C197.091 180.477 197.044 180.777 196.95 181.055C196.871 181.333 196.798 181.6 196.73 181.851C196.641 182.097 196.541 182.322 196.452 182.541C196.295 182.985 196.075 183.332 195.897 183.643C195.808 183.792 195.735 183.942 195.651 184.065C195.562 184.183 195.478 184.29 195.405 184.381C195.107 184.749 194.955 184.937 194.955 184.937Z" fill="#E8505B"/>
<path d="M211.718 143.619C211.718 143.619 211.692 143.373 211.655 142.897C211.645 142.78 211.634 142.646 211.624 142.496C211.603 142.352 211.561 142.192 211.529 142.02C211.456 141.673 211.388 141.267 211.215 140.833C211.137 140.614 211.063 140.379 210.969 140.138C210.854 139.903 210.739 139.657 210.613 139.4C210.498 139.138 210.341 138.882 210.173 138.62C210 138.358 209.854 138.064 209.639 137.802C208.859 136.689 207.764 135.566 206.424 134.444C203.742 132.187 199.961 130.091 195.368 128.257C190.77 126.412 185.329 124.883 179.228 123.68C173.127 122.477 166.346 121.664 159.046 121.3C151.745 120.942 143.916 121.038 135.731 121.819C131.641 122.215 127.462 122.792 123.236 123.6C119.01 124.402 114.731 125.455 110.479 126.861C106.242 128.289 101.99 130.037 98.1041 132.572C96.1769 133.845 94.3178 135.31 92.8358 137.139C92.0974 138.053 91.4637 139.058 90.9872 140.144C90.5473 141.245 90.2802 142.416 90.2593 143.609C90.2802 144.801 90.5421 145.977 90.982 147.074C91.4585 148.159 92.0869 149.164 92.8306 150.079C94.3126 151.913 96.1717 153.372 98.0989 154.65C101.985 157.185 106.237 158.939 110.474 160.367C114.726 161.773 119.004 162.826 123.231 163.628C127.457 164.436 131.636 165.013 135.726 165.409C143.911 166.19 151.74 166.286 159.04 165.928C166.34 165.564 173.122 164.751 179.223 163.548C185.324 162.345 190.765 160.816 195.363 158.971C199.956 157.137 203.737 155.041 206.418 152.784C207.759 151.661 208.853 150.538 209.634 149.426C209.848 149.164 209.995 148.87 210.168 148.608C210.335 148.346 210.498 148.089 210.608 147.827C210.733 147.571 210.854 147.325 210.964 147.09C211.058 146.849 211.131 146.614 211.21 146.394C211.383 145.961 211.451 145.555 211.524 145.207C211.561 145.036 211.598 144.876 211.618 144.731C211.629 144.582 211.639 144.448 211.65 144.33C211.692 143.865 211.718 143.619 211.718 143.619C211.718 143.619 211.713 143.865 211.681 144.341C211.676 144.464 211.666 144.598 211.655 144.742C211.639 144.892 211.598 145.047 211.566 145.223C211.498 145.571 211.435 145.983 211.262 146.421C211.184 146.64 211.116 146.881 211.021 147.122C210.912 147.357 210.791 147.608 210.671 147.865C210.555 148.132 210.398 148.389 210.231 148.656C210.058 148.918 209.911 149.218 209.697 149.48C208.921 150.603 207.822 151.736 206.486 152.87C203.8 155.148 200.019 157.265 195.421 159.115C190.818 160.976 185.371 162.521 179.265 163.741C173.154 164.96 166.367 165.783 159.056 166.158C151.745 166.526 143.906 166.441 135.705 165.666C131.604 165.27 127.42 164.698 123.183 163.89C118.947 163.088 114.658 162.035 110.39 160.623C106.137 159.196 101.869 157.436 97.9522 154.88C96.0093 153.592 94.1293 152.116 92.6211 150.255C91.867 149.325 91.2229 148.293 90.7358 147.18C90.2855 146.052 90.0131 144.838 89.9922 143.603C90.0131 142.368 90.2855 141.16 90.7411 140.031C91.2281 138.914 91.8775 137.887 92.6316 136.957C94.145 135.096 96.0251 133.62 97.9627 132.337C101.88 129.786 106.148 128.027 110.4 126.599C114.663 125.188 118.952 124.134 123.189 123.332C127.425 122.525 131.61 121.953 135.71 121.557C143.906 120.782 151.751 120.696 159.056 121.065C166.367 121.439 173.154 122.263 179.265 123.482C185.371 124.701 190.823 126.246 195.426 128.107C200.024 129.963 203.81 132.075 206.492 134.353C207.832 135.486 208.927 136.62 209.707 137.743C209.922 138.005 210.068 138.304 210.241 138.566C210.409 138.834 210.566 139.09 210.681 139.358C210.807 139.62 210.922 139.866 211.032 140.101C211.126 140.341 211.2 140.582 211.273 140.801C211.446 141.24 211.509 141.646 211.577 141.999C211.608 142.176 211.65 142.331 211.666 142.48C211.676 142.63 211.681 142.764 211.692 142.881C211.708 143.373 211.718 143.619 211.718 143.619Z" fill="#E8505B"/>
<path d="M189.503 92.1901C189.503 92.1901 189.299 92.0618 188.906 91.7998C188.806 91.7356 188.696 91.6607 188.576 91.5805C188.45 91.5057 188.304 91.4415 188.147 91.3667C187.832 91.2116 187.476 91.0191 187.036 90.8961C186.816 90.8266 186.591 90.741 186.345 90.6715C186.094 90.6181 185.832 90.5646 185.554 90.5058C185.282 90.4363 184.989 90.4095 184.68 90.3828C184.371 90.3614 184.057 90.3026 183.721 90.3133C182.386 90.2598 180.841 90.4576 179.155 90.848C175.761 91.6287 171.828 93.3986 167.592 95.9812C163.35 98.5586 158.831 102.018 154.159 106.2C149.488 110.386 144.707 115.359 139.952 121.027C135.202 126.701 130.478 133.074 126.069 140.159C123.869 143.705 121.753 147.426 119.79 151.335C117.821 155.238 116.014 159.334 114.5 163.628C113.008 167.922 111.762 172.424 111.343 177.114C111.149 179.45 111.144 181.846 111.646 184.167C111.903 185.322 112.29 186.45 112.84 187.498C113.422 188.524 114.165 189.46 115.076 190.209C116.014 190.925 117.082 191.433 118.203 191.749C119.334 192.027 120.502 192.139 121.664 192.102C123.99 192.027 126.262 191.423 128.431 190.653C132.772 189.07 136.736 186.712 140.439 184.167C144.136 181.6 147.571 178.793 150.781 175.873C153.997 172.959 157.003 169.938 159.815 166.879C165.434 160.757 170.305 154.49 174.499 148.383C178.689 142.266 182.213 136.299 185.02 130.636C187.827 124.974 189.979 119.648 191.367 114.809C192.76 109.98 193.457 105.644 193.352 102.098C193.3 100.328 193.106 98.7564 192.724 97.4464C192.655 97.1148 192.514 96.8154 192.42 96.516C192.32 96.2165 192.221 95.9331 192.085 95.6818C191.964 95.4251 191.844 95.1738 191.734 94.9439C191.608 94.7193 191.467 94.5161 191.346 94.3183C191.116 93.9119 190.844 93.6071 190.624 93.3398C190.508 93.2061 190.414 93.0777 190.309 92.9708C190.199 92.8692 190.105 92.7836 190.016 92.6981C189.681 92.3612 189.503 92.1901 189.503 92.1901C189.503 92.1901 189.686 92.3452 190.042 92.6607C190.131 92.7409 190.231 92.8264 190.341 92.928C190.446 93.035 190.545 93.1633 190.66 93.297C190.885 93.5643 191.168 93.8691 191.399 94.2755C191.524 94.4734 191.666 94.6765 191.791 94.9011C191.907 95.1364 192.027 95.3824 192.153 95.6444C192.289 95.901 192.394 96.1844 192.493 96.4839C192.593 96.7833 192.729 97.0828 192.802 97.4196C193.195 98.735 193.399 100.312 193.462 102.088C193.582 105.649 192.896 110.001 191.519 114.846C190.142 119.701 188 125.043 185.198 130.722C182.396 136.4 178.877 142.384 174.688 148.512C170.493 154.634 165.623 160.912 159.998 167.05C157.181 170.114 154.175 173.141 150.954 176.066C147.739 178.996 144.293 181.808 140.591 184.386C136.878 186.942 132.903 189.31 128.525 190.904C126.341 191.685 124.047 192.294 121.675 192.374C120.491 192.412 119.303 192.3 118.14 192.011C116.988 191.685 115.883 191.161 114.914 190.417C113.972 189.642 113.202 188.68 112.605 187.621C112.039 186.546 111.641 185.391 111.384 184.215C110.871 181.851 110.882 179.434 111.076 177.082C111.5 172.355 112.757 167.836 114.254 163.532C115.773 159.227 117.585 155.121 119.564 151.212C121.534 147.298 123.654 143.571 125.859 140.02C130.279 132.93 135.018 126.551 139.779 120.878C144.55 115.21 149.347 110.237 154.034 106.05C158.721 101.868 163.256 98.4142 167.513 95.8422C171.766 93.2649 175.719 91.5057 179.129 90.7357C180.831 90.3507 182.381 90.1582 183.721 90.2224C184.057 90.2117 184.376 90.2758 184.685 90.2972C184.994 90.324 185.287 90.356 185.565 90.4256C185.842 90.4844 186.104 90.5432 186.356 90.5967C186.602 90.6715 186.832 90.7571 187.047 90.8319C187.492 90.9603 187.848 91.1635 188.157 91.3185C188.314 91.3987 188.461 91.4683 188.586 91.5431C188.707 91.6287 188.817 91.7035 188.911 91.773C189.309 92.0457 189.503 92.1901 189.503 92.1901Z" fill="#E8505B"/>
<path d="M87.8606 173.178C89.1072 173.178 90.1177 172.147 90.1177 170.874C90.1177 169.601 89.1072 168.569 87.8606 168.569C86.6141 168.569 85.6035 169.601 85.6035 170.874C85.6035 172.147 86.6141 173.178 87.8606 173.178Z" fill="#E8505B"/>
<path d="M216.855 97.7995C216.855 99.0721 215.844 100.104 214.598 100.104C213.352 100.104 212.341 99.0721 212.341 97.7995C212.341 96.5269 213.352 95.4949 214.598 95.4949C215.844 95.4949 216.855 96.5269 216.855 97.7995Z" fill="#E8505B"/>
<path d="M103.718 176.82C103.718 177.146 103.461 177.408 103.141 177.408C102.822 177.408 102.565 177.146 102.565 176.82C102.565 176.493 102.822 176.231 103.141 176.231C103.461 176.231 103.718 176.499 103.718 176.82Z" fill="#E8505B"/>
<path d="M115.967 112.221C115.967 112.547 115.71 112.809 115.391 112.809C115.072 112.809 114.815 112.547 114.815 112.221C114.815 111.895 115.072 111.633 115.391 111.633C115.71 111.633 115.967 111.895 115.967 112.221Z" fill="#E8505B"/>
<path d="M205.512 143.619C205.512 143.945 205.255 144.207 204.936 144.207C204.616 144.207 204.36 143.945 204.36 143.619C204.36 143.293 204.616 143.031 204.936 143.031C205.255 143.036 205.512 143.298 205.512 143.619Z" fill="#E8505B"/>
<path d="M213.488 116.306C213.488 116.632 213.231 116.894 212.912 116.894C212.593 116.894 212.336 116.632 212.336 116.306C212.336 115.98 212.593 115.718 212.912 115.718C213.231 115.718 213.488 115.98 213.488 116.306Z" fill="#E8505B"/>
</g>
<defs>
<clipPath id="clip0_586_2865">
<rect width="241.43" height="204.951" fill="white" transform="translate(29.7417 54.6799)"/>
</clipPath>
</defs>
</svg>
